{"glyphs":{"0":{"ha":693,"x_min":0,"x_max":0,"o":"m 81 482 b 347 986 81 832 192 986 b 613 482 504 986 613 832 b 347 -21 613 131 501 -21 b 81 482 193 -21 81 131 m 147 483 b 349 13 147 144 236 13 b 546 475 460 13 546 133 b 346 953 546 797 469 953 b 147 483 232 953 147 829 "},"1":{"ha":319,"x_min":0,"x_max":0,"o":"m 85 10 b 129 124 118 28 129 56 l 129 826 b 29 921 129 894 118 922 l 29 931 l 193 986 l 203 986 b 190 842 192 932 190 910 l 190 124 b 235 10 190 56 201 26 l 235 0 l 85 0 "},"2":{"ha":647,"x_min":0,"x_max":0,"o":"m 585 124 l 524 0 l 39 0 l 39 10 b 336 421 157 147 246 283 b 467 779 442 581 467 669 b 297 960 467 876 422 960 b 117 857 201 960 149 914 l 108 857 l 81 933 b 310 986 168 969 244 986 b 543 782 453 986 543 901 b 371 390 543 668 489 558 l 121 50 l 346 50 b 578 128 467 50 518 50 "},"3":{"ha":601,"x_min":0,"x_max":0,"o":"m 263 592 b 579 299 503 549 579 431 b 217 -17 579 124 413 -17 b 56 -3 163 -17 100 -10 l 25 133 l 33 136 b 225 18 85 39 146 18 b 508 288 410 18 508 104 b 211 556 508 446 389 543 l 211 563 l 425 922 l 257 922 b 103 874 183 922 149 914 l 94 874 l 63 972 l 533 972 l 533 963 b 447 865 501 936 476 910 l 263 592 "},"4":{"ha":661,"x_min":0,"x_max":0,"o":"m 501 304 l 501 124 b 546 10 501 56 513 26 l 546 0 l 396 0 l 396 10 b 440 124 429 28 440 56 l 440 304 l 65 304 l 65 311 l 67 313 l 476 1019 l 533 972 l 533 963 b 324 696 474 915 418 854 l 115 344 l 440 344 l 440 481 b 396 594 440 549 429 576 l 396 604 l 504 646 l 514 646 b 501 501 503 592 501 569 l 501 344 l 522 344 b 622 393 576 344 593 360 l 629 389 l 593 304 "},"5":{"ha":654,"x_min":0,"x_max":0,"o":"m 188 681 b 593 336 531 632 593 458 b 226 -17 593 125 407 -17 b 65 -11 179 -17 115 -14 l 32 147 l 39 149 b 229 18 93 60 126 18 b 531 311 397 18 531 111 b 168 644 531 429 471 594 l 151 647 l 201 972 l 563 972 l 531 874 l 522 874 b 368 922 476 914 442 922 l 246 922 l 188 681 "},"6":{"ha":706,"x_min":0,"x_max":0,"o":"m 375 504 b 215 460 313 504 279 496 l 210 468 b 401 542 269 510 324 542 b 624 300 533 542 624 436 b 350 -17 624 125 499 -17 b 82 303 196 -17 82 108 b 515 989 82 594 281 814 l 526 974 b 149 314 293 793 149 543 b 353 17 149 219 183 17 b 558 267 476 17 558 96 b 375 504 558 428 478 504 "},"7":{"ha":715,"x_min":0,"x_max":0,"o":"m 656 972 l 656 963 b 375 390 628 936 607 885 l 192 0 l 93 0 l 93 10 b 378 504 150 50 274 296 l 588 922 l 257 922 b 103 874 183 922 149 914 l 94 874 l 63 972 "},"8":{"ha":689,"x_min":0,"x_max":0,"o":"m 346 554 b 168 789 243 628 168 690 b 338 967 168 876 226 967 b 504 789 461 967 504 875 b 385 561 504 704 464 625 l 392 554 b 567 794 497 621 567 693 b 339 992 567 925 451 992 b 111 776 226 992 111 928 b 301 517 111 679 193 589 l 328 499 b 550 199 478 397 550 317 b 343 11 550 104 472 11 b 139 226 242 11 139 90 b 290 485 139 322 194 418 l 282 492 b 78 211 153 422 78 328 b 335 -21 78 60 192 -21 b 611 206 478 -21 611 50 b 383 528 611 350 501 443 l 346 554 "},"9":{"ha":592,"x_min":0,"x_max":0,"o":"m 263 469 b 422 514 325 469 358 478 l 428 507 b 236 432 368 464 314 432 b 14 674 104 432 14 538 b 288 990 14 849 139 990 b 557 671 442 990 557 865 b 122 -15 557 379 357 160 l 111 0 b 489 660 344 181 489 431 b 285 957 489 754 454 957 b 79 722 161 957 79 874 b 263 469 79 546 160 469 "}," ":{"ha":394,"x_min":0,"x_max":0,"o":""},"A":{"ha":1018,"x_min":0,"x_max":0,"o":"m 894 132 b 989 10 921 74 942 31 l 989 0 l 828 0 l 828 10 b 826 129 865 29 860 57 l 699 408 l 279 408 l 154 128 b 160 10 125 61 118 31 l 160 0 l 29 0 l 29 10 b 119 129 65 31 94 72 l 500 990 l 511 990 l 894 132 m 683 440 l 485 871 l 293 440 "},"Á":{"ha":1018,"x_min":0,"x_max":0,"o":"m 601 1233 b 407 1107 554 1193 490 1150 l 401 1114 b 561 1307 483 1179 522 1224 l 569 1307 l 601 1233 m 894 132 b 989 10 921 74 942 31 l 989 0 l 828 0 l 828 10 b 826 129 865 29 860 57 l 699 408 l 279 408 l 154 128 b 160 10 125 61 118 31 l 160 0 l 29 0 l 29 10 b 119 129 65 31 94 72 l 500 990 l 511 990 l 894 132 m 683 440 l 485 871 l 293 440 "},"Ă":{"ha":1018,"x_min":0,"x_max":0,"o":"m 506 1089 b 397 1219 432 1089 389 1140 l 411 1219 b 506 1128 417 1154 451 1128 b 600 1219 558 1128 593 1154 l 614 1219 b 506 1089 621 1140 578 1089 m 894 132 b 989 10 921 74 942 31 l 989 0 l 828 0 l 828 10 b 826 129 865 29 860 57 l 699 408 l 279 408 l 154 128 b 160 10 125 61 118 31 l 160 0 l 29 0 l 29 10 b 119 129 65 31 94 72 l 500 990 l 511 990 l 894 132 m 683 440 l 485 871 l 293 440 "},"Â":{"ha":1018,"x_min":0,"x_max":0,"o":"m 508 1207 b 367 1107 465 1165 428 1143 l 361 1114 b 504 1307 428 1174 468 1224 l 513 1307 b 656 1114 549 1224 589 1174 l 650 1107 b 508 1207 589 1143 551 1165 m 894 132 b 989 10 921 74 942 31 l 989 0 l 828 0 l 828 10 b 826 129 865 29 860 57 l 699 408 l 279 408 l 154 128 b 160 10 125 61 118 31 l 160 0 l 29 0 l 29 10 b 119 129 65 31 94 72 l 500 990 l 511 990 l 894 132 m 683 440 l 485 871 l 293 440 "},"Ä":{"ha":1018,"x_min":0,"x_max":0,"o":"m 408 1161 b 356 1214 375 1161 356 1186 b 408 1267 356 1243 375 1267 b 461 1214 440 1267 461 1243 b 408 1161 461 1186 440 1161 m 603 1161 b 550 1214 569 1161 550 1186 b 603 1267 550 1243 569 1267 b 656 1214 635 1267 656 1243 b 603 1161 656 1186 635 1161 m 894 132 b 989 10 921 74 942 31 l 989 0 l 828 0 l 828 10 b 826 129 865 29 860 57 l 699 408 l 279 408 l 154 128 b 160 10 125 61 118 31 l 160 0 l 29 0 l 29 10 b 119 129 65 31 94 72 l 500 990 l 511 990 l 894 132 m 683 440 l 485 871 l 293 440 "},"À":{"ha":1018,"x_min":0,"x_max":0,"o":"m 600 1107 b 406 1233 517 1150 453 1193 l 438 1307 l 446 1307 b 606 1114 485 1224 524 1181 m 894 132 b 989 10 921 74 942 31 l 989 0 l 828 0 l 828 10 b 826 129 865 29 860 57 l 699 408 l 279 408 l 154 128 b 160 10 125 61 118 31 l 160 0 l 29 0 l 29 10 b 119 129 65 31 94 72 l 500 990 l 511 990 l 894 132 m 683 440 l 485 871 l 293 440 "},"Ā":{"ha":1018,"x_min":0,"x_max":0,"o":"m 488 1181 b 385 1175 454 1181 396 1178 l 379 1175 l 379 1224 l 385 1224 b 488 1218 396 1221 454 1218 l 532 1218 b 635 1224 565 1218 615 1221 l 640 1224 l 640 1175 l 635 1175 b 532 1181 615 1178 565 1181 l 488 1181 m 894 132 b 989 10 921 74 942 31 l 989 0 l 828 0 l 828 10 b 826 129 865 29 860 57 l 699 408 l 279 408 l 154 128 b 160 10 125 61 118 31 l 160 0 l 29 0 l 29 10 b 119 129 65 31 94 72 l 500 990 l 511 990 l 894 132 m 683 440 l 485 871 l 293 440 "},"Ą":{"ha":1018,"x_min":0,"x_max":0,"o":"m 154 128 b 160 10 125 61 118 31 l 160 0 l 29 0 l 29 10 b 119 129 65 31 94 72 l 500 990 l 511 990 l 894 132 b 989 10 921 74 942 31 l 989 0 l 828 0 l 828 10 b 826 129 865 29 860 57 l 699 408 l 279 408 l 154 128 m 485 871 l 293 440 l 683 440 m 1011 -210 b 897 -247 985 -229 943 -247 b 768 -133 829 -247 768 -207 b 849 -57 768 -85 806 -57 b 907 -75 874 -57 892 -64 l 886 -3 l 899 -3 l 956 -108 l 950 -114 b 876 -89 929 -100 903 -89 b 814 -146 842 -89 814 -114 b 900 -229 814 -193 850 -229 b 1006 -201 942 -229 972 -218 "},"Å":{"ha":1018,"x_min":0,"x_max":0,"o":"m 506 1089 b 389 1206 432 1089 389 1140 b 506 1321 389 1269 432 1321 b 621 1206 578 1321 621 1269 b 506 1089 621 1140 578 1089 m 506 1296 b 431 1206 458 1296 431 1256 b 506 1114 431 1154 458 1114 b 579 1206 551 1114 579 1154 b 506 1296 579 1256 551 1296 m 894 132 b 989 10 921 74 942 31 l 989 0 l 828 0 l 828 10 b 826 129 865 29 860 57 l 699 408 l 279 408 l 154 128 b 160 10 125 61 118 31 l 160 0 l 29 0 l 29 10 b 119 129 65 31 94 72 l 500 990 l 511 990 l 894 132 m 683 440 l 485 871 l 293 440 "},"Ã":{"ha":1018,"x_min":0,"x_max":0,"o":"m 417 1242 b 360 1140 400 1242 382 1225 l 347 1142 b 426 1299 360 1242 393 1299 b 586 1176 479 1299 550 1176 b 643 1283 604 1176 624 1199 l 657 1282 b 575 1125 643 1183 610 1125 b 417 1242 522 1125 446 1242 m 894 132 b 989 10 921 74 942 31 l 989 0 l 828 0 l 828 10 b 826 129 865 29 860 57 l 699 408 l 279 408 l 154 128 b 160 10 125 61 118 31 l 160 0 l 29 0 l 29 10 b 119 129 65 31 94 72 l 500 990 l 511 990 l 894 132 m 683 440 l 485 871 l 293 440 "},"Æ":{"ha":1128,"x_min":0,"x_max":0,"o":"m 1094 110 l 1033 0 l 563 0 l 563 10 b 607 124 596 28 607 56 l 607 469 l 379 469 l 204 117 b 179 10 168 43 172 32 l 179 0 l 71 0 l 71 10 b 175 131 115 35 138 56 l 576 940 l 219 940 b 65 892 146 940 111 932 l 57 892 l 29 972 l 1050 972 l 1028 892 l 1019 892 b 818 940 978 928 918 940 l 675 940 l 675 501 l 824 501 b 997 557 919 501 965 511 l 1004 554 l 960 446 l 953 446 b 844 469 926 463 888 469 l 675 469 l 675 32 l 856 32 b 1088 114 976 32 1028 50 m 607 501 l 607 932 l 394 501 "},"B":{"ha":696,"x_min":0,"x_max":0,"o":"m 411 529 b 654 278 553 500 654 426 b 313 0 654 100 522 0 l 57 0 l 57 10 b 101 124 90 28 101 56 l 101 849 b 57 963 101 917 90 944 l 57 972 l 269 972 b 547 774 453 972 547 907 b 411 529 547 683 486 592 m 294 29 b 581 265 472 29 581 115 b 253 519 581 472 404 508 l 253 533 b 479 746 404 538 479 610 b 214 940 479 910 351 940 l 169 940 l 169 29 l 294 29 "},"C":{"ha":981,"x_min":0,"x_max":0,"o":"m 900 29 b 579 -21 769 -7 683 -21 b 50 496 254 -21 50 204 b 561 993 50 774 244 993 b 925 935 664 993 782 978 l 900 846 l 892 846 b 556 963 814 926 697 963 b 128 515 304 963 128 790 b 585 14 128 206 326 14 b 929 192 763 14 863 74 l 939 188 "},"Ć":{"ha":981,"x_min":0,"x_max":0,"o":"m 442 1114 b 601 1307 524 1179 563 1224 l 610 1307 l 642 1233 b 447 1107 594 1193 531 1150 l 442 1114 m 900 29 b 579 -21 769 -7 683 -21 b 50 496 254 -21 50 204 b 561 993 50 774 244 993 b 925 935 664 993 782 978 l 900 846 l 892 846 b 556 963 814 926 697 963 b 128 515 304 963 128 790 b 585 14 128 206 326 14 b 929 192 763 14 863 74 l 939 188 "},"Č":{"ha":981,"x_min":0,"x_max":0,"o":"m 696 1300 b 553 1107 629 1240 589 1190 l 544 1107 b 401 1300 508 1190 468 1240 l 407 1307 b 549 1207 468 1271 506 1249 b 690 1307 592 1249 629 1271 l 696 1300 m 900 29 b 579 -21 769 -7 683 -21 b 50 496 254 -21 50 204 b 561 993 50 774 244 993 b 925 935 664 993 782 978 l 900 846 l 892 846 b 556 963 814 926 697 963 b 128 515 304 963 128 790 b 585 14 128 206 326 14 b 929 192 763 14 863 74 l 939 188 "},"Ç":{"ha":981,"x_min":0,"x_max":0,"o":"m 572 -21 l 557 -75 b 615 -57 572 -64 590 -57 b 696 -133 658 -57 696 -85 b 567 -247 696 -207 635 -247 b 453 -210 521 -247 479 -229 l 458 -201 b 564 -229 492 -218 522 -229 b 650 -146 614 -229 650 -193 b 588 -89 650 -114 622 -89 b 514 -114 561 -89 535 -100 l 508 -108 l 556 -21 b 50 496 244 -10 50 211 b 561 993 50 774 244 993 b 925 935 664 993 782 978 l 900 846 l 892 846 b 556 963 814 926 697 963 b 128 515 304 963 128 790 b 585 14 128 206 326 14 b 929 192 763 14 863 74 l 939 188 l 900 29 b 579 -21 769 -7 683 -21 "},"Ċ":{"ha":981,"x_min":0,"x_max":0,"o":"m 549 1161 b 496 1214 515 1161 496 1186 b 549 1267 496 1243 515 1267 b 601 1214 581 1267 601 1243 b 549 1161 601 1186 581 1161 m 900 29 b 579 -21 769 -7 683 -21 b 50 496 254 -21 50 204 b 561 993 50 774 244 993 b 925 935 664 993 782 978 l 900 846 l 892 846 b 556 963 814 926 697 963 b 128 515 304 963 128 790 b 585 14 128 206 326 14 b 929 192 763 14 863 74 l 939 188 "},"D":{"ha":1040,"x_min":0,"x_max":0,"o":"m 406 972 b 990 514 781 972 990 807 b 442 0 990 182 794 0 l 57 0 l 57 10 b 101 124 90 28 101 56 l 101 849 b 57 963 101 917 90 944 l 57 972 l 406 972 m 438 32 b 913 494 754 32 913 189 b 413 940 913 775 742 940 l 169 940 l 169 32 l 438 32 "},"Ð":{"ha":1115,"x_min":0,"x_max":0,"o":"m 481 972 b 1065 514 856 972 1065 807 b 517 0 1065 182 869 0 l 132 0 l 132 10 b 176 124 165 28 176 56 l 176 469 l 165 469 b 63 463 132 469 85 465 l 57 463 l 57 514 l 63 514 b 165 507 85 511 132 507 l 176 507 l 176 849 b 132 963 176 917 165 944 l 132 972 l 481 972 m 513 32 b 988 494 829 32 988 189 b 488 940 988 775 817 940 l 244 940 l 244 507 l 321 507 b 424 514 354 507 401 511 l 429 514 l 429 463 l 424 463 b 321 469 401 465 354 469 l 244 469 l 244 32 l 513 32 "},"Ď":{"ha":1040,"x_min":0,"x_max":0,"o":"m 479 1107 b 336 1300 443 1190 403 1240 l 342 1307 b 483 1207 403 1271 440 1249 b 625 1307 526 1249 564 1271 l 631 1300 b 488 1107 564 1240 524 1190 l 479 1107 m 406 972 b 990 514 781 972 990 807 b 442 0 990 182 794 0 l 57 0 l 57 10 b 101 124 90 28 101 56 l 101 849 b 57 963 101 917 90 944 l 57 972 l 406 972 m 438 32 b 913 494 754 32 913 189 b 413 940 913 775 742 940 l 169 940 l 169 32 l 438 32 "},"Đ":{"ha":1115,"x_min":0,"x_max":0,"o":"m 481 972 b 1065 514 856 972 1065 807 b 517 0 1065 182 869 0 l 132 0 l 132 10 b 176 124 165 28 176 56 l 176 469 l 165 469 b 63 463 132 469 85 465 l 57 463 l 57 514 l 63 514 b 165 507 85 511 132 507 l 176 507 l 176 849 b 132 963 176 917 165 944 l 132 972 l 481 972 m 513 32 b 988 494 829 32 988 189 b 488 940 988 775 817 940 l 244 940 l 244 507 l 321 507 b 424 514 354 507 401 511 l 429 514 l 429 463 l 424 463 b 321 469 401 465 354 469 l 244 469 l 244 32 l 513 32 "},"E":{"ha":622,"x_min":0,"x_max":0,"o":"m 589 110 l 528 0 l 57 0 l 57 10 b 101 124 90 28 101 56 l 101 849 b 57 963 101 917 90 944 l 57 972 l 544 972 l 522 892 l 514 892 b 313 940 472 928 413 940 l 169 940 l 169 585 l 318 585 b 492 640 414 585 460 594 l 499 638 l 454 529 l 447 529 b 339 553 421 546 382 553 l 169 553 l 169 32 l 350 32 b 582 114 471 32 522 50 "},"É":{"ha":622,"x_min":0,"x_max":0,"o":"m 404 1233 b 210 1107 357 1193 293 1150 l 204 1114 b 364 1307 286 1179 325 1224 l 372 1307 l 404 1233 m 589 110 l 528 0 l 57 0 l 57 10 b 101 124 90 28 101 56 l 101 849 b 57 963 101 917 90 944 l 57 972 l 544 972 l 522 892 l 514 892 b 313 940 472 928 413 940 l 169 940 l 169 585 l 318 585 b 492 640 414 585 460 594 l 499 638 l 454 529 l 447 529 b 339 553 421 546 382 553 l 169 553 l 169 32 l 350 32 b 582 114 471 32 522 50 "},"Ě":{"ha":622,"x_min":0,"x_max":0,"o":"m 307 1107 b 164 1300 271 1190 231 1240 l 169 1307 b 311 1207 231 1271 268 1249 b 453 1307 354 1249 392 1271 l 458 1300 b 315 1107 392 1240 351 1190 l 307 1107 m 589 110 l 528 0 l 57 0 l 57 10 b 101 124 90 28 101 56 l 101 849 b 57 963 101 917 90 944 l 57 972 l 544 972 l 522 892 l 514 892 b 313 940 472 928 413 940 l 169 940 l 169 585 l 318 585 b 492 640 414 585 460 594 l 499 638 l 454 529 l 447 529 b 339 553 421 546 382 553 l 169 553 l 169 32 l 350 32 b 582 114 471 32 522 50 "},"Ê":{"ha":622,"x_min":0,"x_max":0,"o":"m 311 1207 b 169 1107 268 1165 231 1143 l 164 1114 b 307 1307 231 1174 271 1224 l 315 1307 b 458 1114 351 1224 392 1174 l 453 1107 b 311 1207 392 1143 354 1165 m 589 110 l 528 0 l 57 0 l 57 10 b 101 124 90 28 101 56 l 101 849 b 57 963 101 917 90 944 l 57 972 l 544 972 l 522 892 l 514 892 b 313 940 472 928 413 940 l 169 940 l 169 585 l 318 585 b 492 640 414 585 460 594 l 499 638 l 454 529 l 447 529 b 339 553 421 546 382 553 l 169 553 l 169 32 l 350 32 b 582 114 471 32 522 50 "},"Ë":{"ha":622,"x_min":0,"x_max":0,"o":"m 211 1161 b 158 1214 178 1161 158 1186 b 211 1267 158 1243 178 1267 b 264 1214 243 1267 264 1243 b 211 1161 264 1186 243 1161 m 406 1161 b 353 1214 372 1161 353 1186 b 406 1267 353 1243 372 1267 b 458 1214 438 1267 458 1243 b 406 1161 458 1186 438 1161 m 589 110 l 528 0 l 57 0 l 57 10 b 101 124 90 28 101 56 l 101 849 b 57 963 101 917 90 944 l 57 972 l 544 972 l 522 892 l 514 892 b 313 940 472 928 413 940 l 169 940 l 169 585 l 318 585 b 492 640 414 585 460 594 l 499 638 l 454 529 l 447 529 b 339 553 421 546 382 553 l 169 553 l 169 32 l 350 32 b 582 114 471 32 522 50 "},"Ė":{"ha":622,"x_min":0,"x_max":0,"o":"m 311 1161 b 258 1214 278 1161 258 1186 b 311 1267 258 1243 278 1267 b 364 1214 343 1267 364 1243 b 311 1161 364 1186 343 1161 m 589 110 l 528 0 l 57 0 l 57 10 b 101 124 90 28 101 56 l 101 849 b 57 963 101 917 90 944 l 57 972 l 544 972 l 522 892 l 514 892 b 313 940 472 928 413 940 l 169 940 l 169 585 l 318 585 b 492 640 414 585 460 594 l 499 638 l 454 529 l 447 529 b 339 553 421 546 382 553 l 169 553 l 169 32 l 350 32 b 582 114 471 32 522 50 "},"È":{"ha":622,"x_min":0,"x_max":0,"o":"m 403 1107 b 208 1233 319 1150 256 1193 l 240 1307 l 249 1307 b 408 1114 288 1224 326 1181 m 589 110 l 528 0 l 57 0 l 57 10 b 101 124 90 28 101 56 l 101 849 b 57 963 101 917 90 944 l 57 972 l 544 972 l 522 892 l 514 892 b 313 940 472 928 413 940 l 169 940 l 169 585 l 318 585 b 492 640 414 585 460 594 l 499 638 l 454 529 l 447 529 b 339 553 421 546 382 553 l 169 553 l 169 32 l 350 32 b 582 114 471 32 522 50 "},"Ē":{"ha":622,"x_min":0,"x_max":0,"o":"m 290 1181 b 188 1175 257 1181 199 1178 l 182 1175 l 182 1224 l 188 1224 b 290 1218 199 1221 257 1218 l 335 1218 b 438 1224 368 1218 418 1221 l 443 1224 l 443 1175 l 438 1175 b 335 1181 418 1178 368 1181 l 290 1181 m 589 110 l 528 0 l 57 0 l 57 10 b 101 124 90 28 101 56 l 101 849 b 57 963 101 917 90 944 l 57 972 l 544 972 l 522 892 l 514 892 b 313 940 472 928 413 940 l 169 940 l 169 585 l 318 585 b 492 640 414 585 460 594 l 499 638 l 454 529 l 447 529 b 339 553 421 546 382 553 l 169 553 l 169 32 l 350 32 b 582 114 471 32 522 50 "},"Ę":{"ha":622,"x_min":0,"x_max":0,"o":"m 528 0 l 299 0 l 353 -101 l 347 -107 b 274 -82 326 -93 300 -82 b 211 -139 239 -82 211 -107 b 297 -222 211 -186 247 -222 b 403 -194 339 -222 369 -211 l 408 -203 b 294 -240 382 -222 340 -240 b 165 -126 226 -240 165 -200 b 246 -50 165 -78 203 -50 b 304 -68 271 -50 289 -57 l 285 0 l 57 0 l 57 10 b 101 124 90 28 101 56 l 101 849 b 57 963 101 917 90 944 l 57 972 l 544 972 l 522 892 l 514 892 b 313 940 472 928 413 940 l 169 940 l 169 585 l 318 585 b 492 640 414 585 460 594 l 499 638 l 454 529 l 447 529 b 339 553 421 546 382 553 l 169 553 l 169 32 l 350 32 b 582 114 471 32 522 50 l 589 110 "},"F":{"ha":578,"x_min":0,"x_max":0,"o":"m 522 892 l 514 892 b 313 940 472 928 413 940 l 169 940 l 169 585 l 318 585 b 492 640 414 585 460 594 l 499 638 l 454 529 l 447 529 b 339 553 421 546 382 553 l 169 553 l 169 124 b 214 10 169 57 181 26 l 214 0 l 57 0 l 57 10 b 101 124 90 28 101 56 l 101 849 b 57 963 101 917 90 944 l 57 972 l 544 972 "},"G":{"ha":1004,"x_min":0,"x_max":0,"o":"m 963 413 l 963 403 b 918 286 929 386 918 356 l 918 31 b 579 -21 769 -7 683 -21 b 50 496 254 -21 50 204 b 560 993 50 774 244 993 b 929 942 664 993 782 978 l 904 853 l 896 853 b 554 963 814 926 707 963 b 128 515 304 963 128 790 b 581 14 128 206 322 14 b 850 85 701 14 794 42 l 850 289 b 806 403 850 357 839 385 l 806 413 "},"Ğ":{"ha":1004,"x_min":0,"x_max":0,"o":"m 546 1089 b 438 1219 472 1089 429 1140 l 451 1219 b 546 1128 457 1154 492 1128 b 640 1219 599 1128 633 1154 l 654 1219 b 546 1089 661 1140 618 1089 m 963 413 l 963 403 b 918 286 929 386 918 356 l 918 31 b 579 -21 769 -7 683 -21 b 50 496 254 -21 50 204 b 560 993 50 774 244 993 b 929 942 664 993 782 978 l 904 853 l 896 853 b 554 963 814 926 707 963 b 128 515 304 963 128 790 b 581 14 128 206 322 14 b 850 85 701 14 794 42 l 850 289 b 806 403 850 357 839 385 l 806 413 "},"Ģ":{"ha":1004,"x_min":0,"x_max":0,"o":"m 963 413 l 963 403 b 918 286 929 386 918 356 l 918 31 b 579 -21 769 -7 683 -21 b 50 496 254 -21 50 204 b 560 993 50 774 244 993 b 929 942 664 993 782 978 l 904 853 l 896 853 b 554 963 814 926 707 963 b 128 515 304 963 128 790 b 581 14 128 206 322 14 b 850 85 701 14 794 42 l 850 289 b 806 403 850 357 839 385 l 806 413 m 600 -72 b 619 -158 611 -92 619 -126 b 535 -342 619 -231 588 -283 l 526 -336 b 565 -208 556 -283 565 -246 b 529 -121 565 -171 550 -144 l 592 -72 "},"Ġ":{"ha":1004,"x_min":0,"x_max":0,"o":"m 549 1161 b 496 1214 515 1161 496 1186 b 549 1267 496 1243 515 1267 b 601 1214 581 1267 601 1243 b 549 1161 601 1186 581 1161 m 963 413 l 963 403 b 918 286 929 386 918 356 l 918 31 b 579 -21 769 -7 683 -21 b 50 496 254 -21 50 204 b 560 993 50 774 244 993 b 929 942 664 993 782 978 l 904 853 l 896 853 b 554 963 814 926 707 963 b 128 515 304 963 128 790 b 581 14 128 206 322 14 b 850 85 701 14 794 42 l 850 289 b 806 403 850 357 839 385 l 806 413 "},"H":{"ha":1042,"x_min":0,"x_max":0,"o":"m 985 963 b 940 849 951 946 940 917 l 940 124 b 985 10 940 54 951 26 l 985 0 l 828 0 l 828 10 b 872 124 861 28 872 56 l 872 492 l 169 492 l 169 124 b 214 10 169 54 181 26 l 214 0 l 57 0 l 57 10 b 101 124 90 28 101 56 l 101 849 b 57 963 101 917 90 944 l 57 972 l 214 972 l 214 963 b 169 849 181 946 169 917 l 169 524 l 872 524 l 872 849 b 828 963 872 917 861 944 l 828 972 l 985 972 l 985 963 "},"Ħ":{"ha":1043,"x_min":0,"x_max":0,"o":"m 1029 739 l 1029 693 l 1024 693 b 940 700 1006 696 971 699 l 940 124 b 985 10 940 54 951 26 l 985 0 l 828 0 l 828 10 b 872 124 861 28 872 56 l 872 492 l 169 492 l 169 124 b 214 10 169 54 181 26 l 214 0 l 57 0 l 57 10 b 101 124 90 28 101 56 l 101 700 b 19 693 71 699 38 696 l 14 693 l 14 739 l 19 739 b 101 732 38 736 71 733 l 101 849 b 57 963 101 917 90 944 l 57 972 l 214 972 l 214 963 b 169 849 181 946 169 917 l 169 732 l 872 732 l 872 849 b 828 963 872 917 861 944 l 828 972 l 985 972 l 985 963 b 940 849 951 946 940 917 l 940 732 b 1024 739 971 733 1006 736 m 872 524 l 872 700 l 169 700 l 169 524 "},"I":{"ha":271,"x_min":0,"x_max":0,"o":"m 57 10 b 101 124 90 28 101 56 l 101 849 b 57 963 101 917 90 944 l 57 972 l 214 972 l 214 963 b 169 849 181 946 169 917 l 169 124 b 214 10 169 56 181 26 l 214 0 l 57 0 "},"Í":{"ha":271,"x_min":0,"x_max":0,"o":"m 28 1114 b 188 1307 110 1179 149 1224 l 196 1307 l 228 1233 b 33 1107 181 1193 117 1150 l 28 1114 m 57 10 b 101 124 90 28 101 56 l 101 849 b 57 963 101 917 90 944 l 57 972 l 214 972 l 214 963 b 169 849 181 946 169 917 l 169 124 b 214 10 169 56 181 26 l 214 0 l 57 0 "},"Î":{"ha":271,"x_min":0,"x_max":0,"o":"m 276 1107 b 135 1207 215 1143 178 1165 b -7 1107 92 1165 54 1143 l -12 1114 b 131 1307 54 1174 94 1224 l 139 1307 b 282 1114 175 1224 215 1174 m 57 10 b 101 124 90 28 101 56 l 101 849 b 57 963 101 917 90 944 l 57 972 l 214 972 l 214 963 b 169 849 181 946 169 917 l 169 124 b 214 10 169 56 181 26 l 214 0 l 57 0 "},"Ï":{"ha":271,"x_min":0,"x_max":0,"o":"m 35 1161 b -18 1214 1 1161 -18 1186 b 35 1267 -18 1243 1 1267 b 88 1214 67 1267 88 1243 b 35 1161 88 1186 67 1161 m 229 1161 b 176 1214 196 1161 176 1186 b 229 1267 176 1243 196 1267 b 282 1214 261 1267 282 1243 b 229 1161 282 1186 261 1161 m 57 10 b 101 124 90 28 101 56 l 101 849 b 57 963 101 917 90 944 l 57 972 l 214 972 l 214 963 b 169 849 181 946 169 917 l 169 124 b 214 10 169 56 181 26 l 214 0 l 57 0 "},"İ":{"ha":271,"x_min":0,"x_max":0,"o":"m 135 1161 b 82 1214 101 1161 82 1186 b 135 1267 82 1243 101 1267 b 188 1214 167 1267 188 1243 b 135 1161 188 1186 167 1161 m 57 10 b 101 124 90 28 101 56 l 101 849 b 57 963 101 917 90 944 l 57 972 l 214 972 l 214 963 b 169 849 181 946 169 917 l 169 124 b 214 10 169 56 181 26 l 214 0 l 57 0 "},"Ì":{"ha":271,"x_min":0,"x_max":0,"o":"m 226 1107 b 32 1233 143 1150 79 1193 l 64 1307 l 72 1307 b 232 1114 111 1224 150 1181 m 57 10 b 101 124 90 28 101 56 l 101 849 b 57 963 101 917 90 944 l 57 972 l 214 972 l 214 963 b 169 849 181 946 169 917 l 169 124 b 214 10 169 56 181 26 l 214 0 l 57 0 "},"Ī":{"ha":271,"x_min":0,"x_max":0,"o":"m 261 1175 b 158 1181 242 1178 192 1181 l 114 1181 b 11 1175 81 1181 22 1178 l 6 1175 l 6 1224 l 11 1224 b 114 1218 22 1221 81 1218 l 158 1218 b 261 1224 192 1218 242 1221 l 267 1224 l 267 1175 l 261 1175 m 57 10 b 101 124 90 28 101 56 l 101 849 b 57 963 101 917 90 944 l 57 972 l 214 972 l 214 963 b 169 849 181 946 169 917 l 169 124 b 214 10 169 56 181 26 l 214 0 l 57 0 "},"Į":{"ha":271,"x_min":0,"x_max":0,"o":"m 246 -204 b 132 -242 219 -224 178 -242 b 3 -128 64 -242 3 -201 b 83 -51 3 -79 40 -51 b 142 -69 108 -51 126 -58 l 122 0 l 57 0 l 57 10 b 101 124 90 28 101 56 l 101 849 b 57 963 101 917 90 944 l 57 972 l 214 972 l 214 963 b 169 849 181 946 169 917 l 169 124 b 214 10 169 56 181 26 l 214 0 l 135 0 l 190 -103 l 185 -108 b 111 -83 164 -94 138 -83 b 49 -140 76 -83 49 -108 b 135 -224 49 -187 85 -224 b 240 -196 176 -224 207 -212 "},"J":{"ha":896,"x_min":0,"x_max":0,"o":"m 843 963 b 799 846 810 946 799 915 l 799 190 b 681 -235 799 18 765 -93 l 671 -231 b 731 193 726 -65 731 32 l 731 940 l 264 940 b 63 892 164 940 104 928 l 54 892 l 32 972 l 843 972 "},"K":{"ha":925,"x_min":0,"x_max":0,"o":"m 775 99 b 893 10 818 50 850 26 l 893 0 l 710 0 l 710 10 b 690 90 738 26 719 57 l 303 538 l 169 429 l 169 124 b 214 10 169 56 181 26 l 214 0 l 57 0 l 57 10 b 101 124 90 28 101 56 l 101 849 b 57 963 101 917 90 944 l 57 972 l 214 972 l 214 963 b 169 849 181 946 169 917 l 169 471 l 675 882 b 703 963 710 910 722 946 l 703 972 l 861 972 l 861 963 b 721 874 817 943 775 917 l 350 575 l 775 99 "},"Ķ":{"ha":925,"x_min":0,"x_max":0,"o":"m 775 99 b 893 10 818 50 850 26 l 893 0 l 710 0 l 710 10 b 690 90 738 26 719 57 l 303 538 l 169 429 l 169 124 b 214 10 169 56 181 26 l 214 0 l 57 0 l 57 10 b 101 124 90 28 101 56 l 101 849 b 57 963 101 917 90 944 l 57 972 l 214 972 l 214 963 b 169 849 181 946 169 917 l 169 471 l 675 882 b 703 963 710 910 722 946 l 703 972 l 861 972 l 861 963 b 721 874 817 943 775 917 l 350 575 l 775 99 m 115 -72 b 135 -158 126 -92 135 -126 b 50 -342 135 -231 103 -283 l 42 -336 b 81 -208 71 -283 81 -246 b 44 -121 81 -171 65 -144 l 107 -72 "},"L":{"ha":622,"x_min":0,"x_max":0,"o":"m 57 10 b 101 124 90 28 101 56 l 101 849 b 57 963 101 917 90 944 l 57 972 l 214 972 l 214 963 b 169 849 181 946 169 917 l 169 32 l 350 32 b 583 129 471 32 522 50 l 590 125 l 528 0 l 57 0 "},"Ĺ":{"ha":622,"x_min":0,"x_max":0,"o":"m 19 1114 b 179 1307 101 1179 140 1224 l 188 1307 l 219 1233 b 25 1107 172 1193 108 1150 l 19 1114 m 57 10 b 101 124 90 28 101 56 l 101 849 b 57 963 101 917 90 944 l 57 972 l 214 972 l 214 963 b 169 849 181 946 169 917 l 169 32 l 350 32 b 583 129 471 32 522 50 l 590 125 l 528 0 l 57 0 "},"Ľ":{"ha":622,"x_min":0,"x_max":0,"o":"m 274 1300 b 131 1107 207 1240 167 1190 l 122 1107 b -21 1300 86 1190 46 1240 l -15 1307 b 126 1207 46 1271 83 1249 b 268 1307 169 1249 207 1271 l 274 1300 m 57 10 b 101 124 90 28 101 56 l 101 849 b 57 963 101 917 90 944 l 57 972 l 214 972 l 214 963 b 169 849 181 946 169 917 l 169 32 l 350 32 b 583 129 471 32 522 50 l 590 125 l 528 0 l 57 0 "},"Ļ":{"ha":622,"x_min":0,"x_max":0,"o":"m 57 10 b 101 124 90 28 101 56 l 101 849 b 57 963 101 917 90 944 l 57 972 l 214 972 l 214 963 b 169 849 181 946 169 917 l 169 32 l 350 32 b 583 129 471 32 522 50 l 590 125 l 528 0 l 57 0 m 321 -72 l 329 -72 b 349 -158 340 -92 349 -126 b 264 -342 349 -231 317 -283 l 256 -336 b 294 -208 285 -283 294 -246 b 258 -121 294 -171 279 -144 "},"Ł":{"ha":622,"x_min":0,"x_max":0,"o":"m 590 125 l 528 0 l 57 0 l 57 10 b 101 124 90 28 101 56 l 101 531 l 76 521 b -18 478 44 508 3 488 l -22 475 l -42 524 l -36 525 b 63 556 -14 531 32 544 l 101 571 l 101 849 b 57 963 101 917 90 944 l 57 972 l 214 972 l 214 963 b 169 849 181 946 169 917 l 169 596 l 208 611 b 301 654 239 622 282 644 l 307 657 l 325 608 l 319 607 b 221 576 299 601 253 589 l 169 557 l 169 32 l 350 32 b 583 129 471 32 522 50 "},"M":{"ha":1196,"x_min":0,"x_max":0,"o":"m 1108 128 b 1164 10 1118 54 1131 26 l 1164 0 l 986 0 l 986 10 b 1040 133 1032 28 1050 56 l 950 826 l 572 -18 l 564 -18 l 210 808 l 121 125 b 182 10 111 56 129 28 l 182 0 l 32 0 l 32 10 b 86 128 65 26 76 54 l 199 989 l 210 989 l 588 103 l 986 990 l 997 990 l 1108 128 "},"N":{"ha":1018,"x_min":0,"x_max":0,"o":"m 54 10 b 99 124 88 28 99 56 l 99 990 l 108 990 l 882 117 l 882 849 b 810 963 882 917 871 944 l 810 972 l 964 972 l 964 963 b 919 849 931 946 919 917 l 919 -18 l 910 -18 l 136 856 l 136 124 b 208 10 136 56 147 26 l 208 0 l 54 0 "},"Ń":{"ha":1018,"x_min":0,"x_max":0,"o":"m 394 1114 b 554 1307 476 1179 515 1224 l 563 1307 l 594 1233 b 400 1107 547 1193 483 1150 l 394 1114 m 54 10 b 99 124 88 28 99 56 l 99 990 l 108 990 l 882 117 l 882 849 b 810 963 882 917 871 944 l 810 972 l 964 972 l 964 963 b 919 849 931 946 919 917 l 919 -18 l 910 -18 l 136 856 l 136 124 b 208 10 136 56 147 26 l 208 0 l 54 0 "},"Ň":{"ha":1018,"x_min":0,"x_max":0,"o":"m 649 1300 b 506 1107 582 1240 542 1190 l 497 1107 b 354 1300 461 1190 421 1240 l 360 1307 b 501 1207 421 1271 458 1249 b 643 1307 544 1249 582 1271 l 649 1300 m 54 10 b 99 124 88 28 99 56 l 99 990 l 108 990 l 882 117 l 882 849 b 810 963 882 917 871 944 l 810 972 l 964 972 l 964 963 b 919 849 931 946 919 917 l 919 -18 l 910 -18 l 136 856 l 136 124 b 208 10 136 56 147 26 l 208 0 l 54 0 "},"Ņ":{"ha":1018,"x_min":0,"x_max":0,"o":"m 54 10 b 99 124 88 28 99 56 l 99 990 l 108 990 l 882 117 l 882 849 b 810 963 882 917 871 944 l 810 972 l 964 972 l 964 963 b 919 849 931 946 919 917 l 919 -18 l 910 -18 l 136 856 l 136 124 b 208 10 136 56 147 26 l 208 0 l 54 0 m 531 -72 l 539 -72 b 558 -158 550 -92 558 -126 b 474 -342 558 -231 526 -283 l 465 -336 b 504 -208 494 -283 504 -246 b 468 -121 504 -171 489 -144 "},"Ŋ":{"ha":1018,"x_min":0,"x_max":0,"o":"m 964 972 l 964 963 b 919 849 931 946 919 917 l 919 -18 b 765 -250 919 -117 889 -207 l 761 -237 b 879 15 876 -193 881 -94 l 136 856 l 136 124 b 208 10 136 56 147 26 l 208 0 l 54 0 l 54 10 b 99 124 88 28 99 56 l 99 990 l 108 990 l 882 117 l 882 849 b 810 963 882 917 871 944 l 810 972 "},"Ñ":{"ha":1018,"x_min":0,"x_max":0,"o":"m 568 1125 b 650 1282 603 1125 636 1183 l 636 1283 b 579 1176 617 1199 597 1176 b 419 1299 543 1176 472 1299 b 340 1142 386 1299 353 1242 l 353 1140 b 410 1242 375 1225 393 1242 b 568 1125 439 1242 515 1125 m 54 10 b 99 124 88 28 99 56 l 99 990 l 108 990 l 882 117 l 882 849 b 810 963 882 917 871 944 l 810 972 l 964 972 l 964 963 b 919 849 931 946 919 917 l 919 -18 l 910 -18 l 136 856 l 136 124 b 208 10 136 56 147 26 l 208 0 l 54 0 "},"O":{"ha":1096,"x_min":0,"x_max":0,"o":"m 50 485 b 549 992 50 765 256 992 b 1046 485 842 992 1046 765 b 549 -21 1046 204 838 -21 b 50 485 260 -21 50 204 m 128 489 b 550 8 128 214 315 10 b 967 481 786 10 967 206 b 546 963 967 743 804 963 b 128 489 308 961 129 767 "},"Ó":{"ha":1096,"x_min":0,"x_max":0,"o":"m 446 1114 b 606 1307 528 1179 567 1224 l 614 1307 l 646 1233 b 451 1107 599 1193 535 1150 l 446 1114 m 50 485 b 549 992 50 765 256 992 b 1046 485 842 992 1046 765 b 549 -21 1046 204 838 -21 b 50 485 260 -21 50 204 m 128 489 b 550 8 128 214 315 10 b 967 481 786 10 967 206 b 546 963 967 743 804 963 b 128 489 308 961 129 767 "},"Ô":{"ha":1096,"x_min":0,"x_max":0,"o":"m 694 1107 b 553 1207 633 1143 596 1165 b 411 1107 510 1165 472 1143 l 406 1114 b 549 1307 472 1174 513 1224 l 557 1307 b 700 1114 593 1224 633 1174 m 50 485 b 549 992 50 765 256 992 b 1046 485 842 992 1046 765 b 549 -21 1046 204 838 -21 b 50 485 260 -21 50 204 m 128 489 b 550 8 128 214 315 10 b 967 481 786 10 967 206 b 546 963 967 743 804 963 b 128 489 308 961 129 767 "},"Ö":{"ha":1096,"x_min":0,"x_max":0,"o":"m 453 1161 b 400 1214 419 1161 400 1186 b 453 1267 400 1243 419 1267 b 506 1214 485 1267 506 1243 b 453 1161 506 1186 485 1161 m 647 1161 b 594 1214 614 1161 594 1186 b 647 1267 594 1243 614 1267 b 700 1214 679 1267 700 1243 b 647 1161 700 1186 679 1161 m 50 485 b 549 992 50 765 256 992 b 1046 485 842 992 1046 765 b 549 -21 1046 204 838 -21 b 50 485 260 -21 50 204 m 128 489 b 550 8 128 214 315 10 b 967 481 786 10 967 206 b 546 963 967 743 804 963 b 128 489 308 961 129 767 "},"Ò":{"ha":1096,"x_min":0,"x_max":0,"o":"m 644 1107 b 450 1233 561 1150 497 1193 l 482 1307 l 490 1307 b 650 1114 529 1224 568 1181 m 50 485 b 549 992 50 765 256 992 b 1046 485 842 992 1046 765 b 549 -21 1046 204 838 -21 b 50 485 260 -21 50 204 m 128 489 b 550 8 128 214 315 10 b 967 481 786 10 967 206 b 546 963 967 743 804 963 b 128 489 308 961 129 767 "},"Ő":{"ha":1096,"x_min":0,"x_max":0,"o":"m 386 1114 b 546 1307 468 1179 507 1224 l 554 1307 l 586 1233 b 392 1107 539 1193 475 1150 l 386 1114 m 539 1114 b 699 1307 621 1179 660 1224 l 707 1307 l 739 1233 b 544 1107 692 1193 628 1150 l 539 1114 m 50 485 b 549 992 50 765 256 992 b 1046 485 842 992 1046 765 b 549 -21 1046 204 838 -21 b 50 485 260 -21 50 204 m 128 489 b 550 8 128 214 315 10 b 967 481 786 10 967 206 b 546 963 967 743 804 963 b 128 489 308 961 129 767 "},"Ō":{"ha":1096,"x_min":0,"x_max":0,"o":"m 679 1175 b 576 1181 660 1178 610 1181 l 532 1181 b 429 1175 499 1181 440 1178 l 424 1175 l 424 1224 l 429 1224 b 532 1218 440 1221 499 1218 l 576 1218 b 679 1224 610 1218 660 1221 l 685 1224 l 685 1175 l 679 1175 m 50 485 b 549 992 50 765 256 992 b 1046 485 842 992 1046 765 b 549 -21 1046 204 838 -21 b 50 485 260 -21 50 204 m 128 489 b 550 8 128 214 315 10 b 967 481 786 10 967 206 b 546 963 967 743 804 963 b 128 489 308 961 129 767 "},"Ø":{"ha":1096,"x_min":0,"x_max":0,"o":"m 801 926 b 1046 485 953 839 1046 674 b 549 -21 1046 204 838 -21 b 340 22 474 -21 403 -6 b 328 -28 333 6 325 -15 l 328 -33 l 263 -33 l 263 -28 b 304 40 281 -6 293 17 b 50 485 149 125 50 292 b 549 992 50 765 256 992 b 769 943 631 992 704 974 b 790 1008 781 964 789 988 l 851 1008 l 851 1003 b 804 931 835 985 828 978 l 801 926 m 128 489 b 325 81 128 311 206 163 l 751 908 b 546 963 693 943 624 963 b 128 489 308 961 129 767 m 550 8 b 967 481 786 10 967 206 b 782 888 967 650 899 801 l 358 58 b 550 8 417 26 481 8 "},"Õ":{"ha":1096,"x_min":0,"x_max":0,"o":"m 619 1125 b 701 1282 654 1125 688 1183 l 688 1283 b 631 1176 668 1199 649 1176 b 471 1299 594 1176 524 1299 b 392 1142 438 1299 404 1242 l 404 1140 b 461 1242 426 1225 444 1242 b 619 1125 490 1242 567 1125 m 50 485 b 549 992 50 765 256 992 b 1046 485 842 992 1046 765 b 549 -21 1046 204 838 -21 b 50 485 260 -21 50 204 m 128 489 b 550 8 128 214 315 10 b 967 481 786 10 967 206 b 546 963 967 743 804 963 b 128 489 308 961 129 767 "},"Œ":{"ha":1185,"x_min":0,"x_max":0,"o":"m 1151 110 l 1090 0 l 599 0 b 50 514 246 0 50 182 b 635 972 50 807 260 972 l 1107 972 l 1085 892 l 1076 892 b 875 940 1035 928 975 940 l 749 940 b 731 849 736 922 731 894 l 731 585 l 881 585 b 1054 640 976 585 1022 594 l 1061 638 l 1017 529 l 1010 529 b 901 553 983 546 944 553 l 731 553 l 731 124 b 749 32 731 78 736 50 l 913 32 b 1144 114 1033 32 1085 50 m 663 32 l 663 940 l 628 940 b 128 494 299 940 128 775 b 603 32 128 189 286 32 "},"P":{"ha":649,"x_min":0,"x_max":0,"o":"m 276 972 b 607 738 453 972 607 929 b 232 483 607 599 525 454 l 235 501 b 535 719 378 493 535 525 b 236 940 535 869 435 940 l 169 940 l 169 124 b 214 10 169 57 181 26 l 214 0 l 57 0 l 57 10 b 101 124 90 28 101 56 l 101 849 b 57 963 101 917 90 944 l 57 972 l 276 972 "},"Þ":{"ha":649,"x_min":0,"x_max":0,"o":"m 276 776 b 607 533 453 776 607 735 b 276 272 607 318 453 272 l 169 272 l 169 124 b 214 10 169 56 181 26 l 214 0 l 57 0 l 57 10 b 101 124 90 28 101 56 l 101 849 b 57 963 101 917 90 944 l 57 972 l 214 972 l 214 963 b 169 849 181 946 169 917 l 169 776 l 276 776 m 236 303 b 535 525 435 303 535 375 b 236 744 535 674 435 744 l 169 744 l 169 303 l 236 303 "},"Q":{"ha":1094,"x_min":0,"x_max":0,"o":"m 588 -19 b 1131 -187 800 -122 951 -186 l 1131 -200 b 383 6 978 -225 836 -207 b 50 485 183 74 50 261 b 549 992 50 765 256 992 b 1046 485 842 992 1046 765 b 588 -19 1046 217 857 0 m 128 489 b 550 8 128 214 315 10 b 967 481 786 10 967 206 b 546 963 967 743 804 963 b 128 489 308 961 129 767 "},"R":{"ha":869,"x_min":0,"x_max":0,"o":"m 722 99 b 840 10 765 50 797 26 l 840 0 l 657 0 l 657 10 b 638 90 685 26 667 56 l 386 382 b 243 503 332 446 297 481 l 243 513 b 517 719 413 518 517 553 b 232 942 517 869 417 942 l 169 942 l 169 126 b 214 10 169 57 181 26 l 214 0 l 57 0 l 57 10 b 101 124 90 28 101 56 l 101 849 b 57 963 101 917 90 944 l 57 972 l 296 972 b 589 751 435 972 589 929 b 382 483 589 636 513 529 l 722 99 "},"Ŕ":{"ha":869,"x_min":0,"x_max":0,"o":"m 400 1233 b 206 1107 353 1193 289 1150 l 200 1114 b 360 1307 282 1179 321 1224 l 368 1307 l 400 1233 m 722 99 b 840 10 765 50 797 26 l 840 0 l 657 0 l 657 10 b 638 90 685 26 667 56 l 386 382 b 243 503 332 446 297 481 l 243 513 b 517 719 413 518 517 553 b 232 942 517 869 417 942 l 169 942 l 169 126 b 214 10 169 57 181 26 l 214 0 l 57 0 l 57 10 b 101 124 90 28 101 56 l 101 849 b 57 963 101 917 90 944 l 57 972 l 296 972 b 589 751 435 972 589 929 b 382 483 589 636 513 529 l 722 99 "},"Ř":{"ha":869,"x_min":0,"x_max":0,"o":"m 303 1107 b 160 1300 267 1190 226 1240 l 165 1307 b 307 1207 226 1271 264 1249 b 449 1307 350 1249 388 1271 l 454 1300 b 311 1107 388 1240 347 1190 l 303 1107 m 722 99 b 840 10 765 50 797 26 l 840 0 l 657 0 l 657 10 b 638 90 685 26 667 56 l 386 382 b 243 503 332 446 297 481 l 243 513 b 517 719 413 518 517 553 b 232 942 517 869 417 942 l 169 942 l 169 126 b 214 10 169 57 181 26 l 214 0 l 57 0 l 57 10 b 101 124 90 28 101 56 l 101 849 b 57 963 101 917 90 944 l 57 972 l 296 972 b 589 751 435 972 589 929 b 382 483 589 636 513 529 l 722 99 "},"Ŗ":{"ha":869,"x_min":0,"x_max":0,"o":"m 722 99 b 840 10 765 50 797 26 l 840 0 l 657 0 l 657 10 b 638 90 685 26 667 56 l 386 382 b 243 503 332 446 297 481 l 243 513 b 517 719 413 518 517 553 b 232 942 517 869 417 942 l 169 942 l 169 126 b 214 10 169 57 181 26 l 214 0 l 57 0 l 57 10 b 101 124 90 28 101 56 l 101 849 b 57 963 101 917 90 944 l 57 972 l 296 972 b 589 751 435 972 589 929 b 382 483 589 636 513 529 l 722 99 m 400 -72 b 419 -158 411 -92 419 -126 b 335 -342 419 -231 388 -283 l 326 -336 b 365 -208 356 -283 365 -246 b 329 -121 365 -171 350 -144 l 392 -72 "},"S":{"ha":597,"x_min":0,"x_max":0,"o":"m 322 997 b 553 960 407 997 489 976 l 526 874 l 519 874 b 301 956 471 925 401 956 b 93 775 154 956 93 868 b 539 200 93 492 539 518 b 310 -19 539 56 418 -19 b 117 3 242 -19 189 -11 l 69 136 l 79 138 b 319 17 119 65 219 17 b 490 176 425 17 490 81 b 46 742 490 443 46 424 b 322 997 46 886 165 997 "},"Ś":{"ha":597,"x_min":0,"x_max":0,"o":"m 201 1114 b 361 1307 283 1179 322 1224 l 369 1307 l 401 1233 b 207 1107 354 1193 290 1150 l 201 1114 m 322 997 b 553 960 407 997 489 976 l 526 874 l 519 874 b 301 956 471 925 401 956 b 93 775 154 956 93 868 b 539 200 93 492 539 518 b 310 -19 539 56 418 -19 b 117 3 242 -19 189 -11 l 69 136 l 79 138 b 319 17 119 65 219 17 b 490 176 425 17 490 81 b 46 742 490 443 46 424 b 322 997 46 886 165 997 "},"Š":{"ha":597,"x_min":0,"x_max":0,"o":"m 456 1300 b 313 1107 389 1240 349 1190 l 304 1107 b 161 1300 268 1190 228 1240 l 167 1307 b 308 1207 228 1271 265 1249 b 450 1307 351 1249 389 1271 l 456 1300 m 322 997 b 553 960 407 997 489 976 l 526 874 l 519 874 b 301 956 471 925 401 956 b 93 775 154 956 93 868 b 539 200 93 492 539 518 b 310 -19 539 56 418 -19 b 117 3 242 -19 189 -11 l 69 136 l 79 138 b 319 17 119 65 219 17 b 490 176 425 17 490 81 b 46 742 490 443 46 424 b 322 997 46 886 165 997 "},"Ş":{"ha":597,"x_min":0,"x_max":0,"o":"m 93 775 b 539 200 93 492 539 518 b 317 -19 539 58 422 -17 l 300 -75 b 358 -57 315 -64 333 -57 b 439 -133 401 -57 439 -85 b 310 -247 439 -207 378 -247 b 196 -210 264 -247 222 -229 l 201 -201 b 307 -229 235 -218 265 -229 b 393 -146 357 -229 393 -193 b 331 -89 393 -114 365 -89 b 257 -114 304 -89 278 -100 l 251 -108 l 300 -19 b 117 3 236 -18 185 -10 l 69 136 l 79 138 b 319 17 119 65 219 17 b 490 176 425 17 490 81 b 46 742 490 443 46 424 b 322 997 46 886 165 997 b 553 960 407 997 489 976 l 526 874 l 519 874 b 301 956 471 925 401 956 b 93 775 154 956 93 868 "},"Ș":{"ha":597,"x_min":0,"x_max":0,"o":"m 322 997 b 553 960 407 997 489 976 l 526 874 l 519 874 b 301 956 471 925 401 956 b 93 775 154 956 93 868 b 539 200 93 492 539 518 b 310 -19 539 56 418 -19 b 117 3 242 -19 189 -11 l 69 136 l 79 138 b 319 17 119 65 219 17 b 490 176 425 17 490 81 b 46 742 490 443 46 424 b 322 997 46 886 165 997 m 332 -72 l 340 -72 b 360 -158 351 -92 360 -126 b 275 -342 360 -231 328 -283 l 267 -336 b 306 -208 296 -283 306 -246 b 269 -121 306 -171 290 -144 "},"ẞ":{"ha":743,"x_min":0,"x_max":0,"o":"m 333 553 b 701 256 574 517 701 443 b 435 -19 701 93 597 -19 b 265 3 390 -19 338 -11 l 218 136 l 228 138 b 454 17 268 65 368 17 b 639 218 588 17 639 111 b 285 517 639 400 539 489 l 285 524 l 514 942 l 169 942 l 169 126 b 214 10 169 57 181 26 l 214 0 l 57 0 l 57 10 b 101 124 90 28 101 56 l 101 849 b 57 963 101 917 90 944 l 57 972 l 640 972 l 640 963 b 536 865 601 949 567 913 l 333 553 "},"T":{"ha":782,"x_min":0,"x_max":0,"o":"m 57 972 l 750 972 l 728 892 l 719 892 b 518 940 678 928 618 940 l 426 940 l 426 126 b 471 10 426 57 438 26 l 471 0 l 314 0 l 314 10 b 358 124 347 28 358 56 l 358 940 l 239 940 b 40 871 153 940 92 925 l 33 874 "},"Ŧ":{"ha":782,"x_min":0,"x_max":0,"o":"m 750 972 l 728 892 l 719 892 b 518 940 678 928 618 940 l 426 940 l 426 510 l 468 510 b 571 517 501 510 549 514 l 576 517 l 576 465 l 571 465 b 468 472 549 468 501 472 l 426 472 l 426 126 b 471 10 426 57 438 26 l 471 0 l 314 0 l 314 10 b 358 124 347 28 358 56 l 358 472 l 313 472 b 210 465 279 472 232 468 l 204 465 l 204 517 l 210 517 b 313 510 232 514 279 510 l 358 510 l 358 940 l 239 940 b 40 871 153 940 92 925 l 33 874 l 57 972 "},"Ť":{"ha":782,"x_min":0,"x_max":0,"o":"m 539 1300 b 396 1107 472 1240 432 1190 l 388 1107 b 244 1300 351 1190 311 1240 l 250 1307 b 392 1207 311 1271 349 1249 b 533 1307 435 1249 472 1271 l 539 1300 m 57 972 l 750 972 l 728 892 l 719 892 b 518 940 678 928 618 940 l 426 940 l 426 126 b 471 10 426 57 438 26 l 471 0 l 314 0 l 314 10 b 358 124 347 28 358 56 l 358 940 l 239 940 b 40 871 153 940 92 925 l 33 874 "},"Ţ":{"ha":782,"x_min":0,"x_max":0,"o":"m 750 972 l 728 892 l 719 892 b 518 940 678 928 618 940 l 426 940 l 426 126 b 471 10 426 57 438 26 l 471 0 l 314 0 l 314 10 b 358 124 347 28 358 56 l 358 940 l 239 940 b 40 871 153 940 92 925 l 33 874 l 57 972 m 442 -57 b 522 -133 485 -57 522 -85 b 393 -247 522 -207 461 -247 b 279 -210 347 -247 306 -229 l 285 -201 b 390 -229 318 -218 349 -229 b 476 -146 440 -229 476 -193 b 414 -89 476 -114 449 -89 b 340 -114 388 -89 361 -100 l 335 -108 l 392 -3 l 404 -3 l 383 -75 b 442 -57 399 -64 417 -57 "},"Ț":{"ha":782,"x_min":0,"x_max":0,"o":"m 57 972 l 750 972 l 728 892 l 719 892 b 518 940 678 928 618 940 l 426 940 l 426 126 b 471 10 426 57 438 26 l 471 0 l 314 0 l 314 10 b 358 124 347 28 358 56 l 358 940 l 239 940 b 40 871 153 940 92 925 l 33 874 m 415 -72 l 424 -72 b 443 -158 435 -92 443 -126 b 358 -342 443 -231 411 -283 l 350 -336 b 389 -208 379 -283 389 -246 b 353 -121 389 -171 374 -144 "},"U":{"ha":833,"x_min":0,"x_max":0,"o":"m 776 963 b 732 849 743 946 732 917 l 732 124 b 776 10 732 56 743 26 l 776 0 l 647 0 l 647 10 b 664 124 661 31 664 56 l 664 186 b 374 -15 606 71 522 -15 b 93 301 188 -15 93 97 l 93 849 b 49 963 93 917 82 944 l 49 972 l 206 972 l 206 963 b 161 849 172 946 161 917 l 161 296 b 389 29 161 128 240 29 b 664 322 558 29 664 179 l 664 849 b 619 963 664 917 653 944 l 619 972 l 776 972 l 776 963 "},"Ú":{"ha":833,"x_min":0,"x_max":0,"o":"m 497 1233 b 303 1107 450 1193 386 1150 l 297 1114 b 457 1307 379 1179 418 1224 l 465 1307 l 497 1233 m 776 963 b 732 849 743 946 732 917 l 732 124 b 776 10 732 56 743 26 l 776 0 l 647 0 l 647 10 b 664 124 661 31 664 56 l 664 186 b 374 -15 606 71 522 -15 b 93 301 188 -15 93 97 l 93 849 b 49 963 93 917 82 944 l 49 972 l 206 972 l 206 963 b 161 849 172 946 161 917 l 161 296 b 389 29 161 128 240 29 b 664 322 558 29 664 179 l 664 849 b 619 963 664 917 653 944 l 619 972 l 776 972 l 776 963 "},"Û":{"ha":833,"x_min":0,"x_max":0,"o":"m 404 1207 b 263 1107 361 1165 324 1143 l 257 1114 b 400 1307 324 1174 364 1224 l 408 1307 b 551 1114 444 1224 485 1174 l 546 1107 b 404 1207 485 1143 447 1165 m 776 963 b 732 849 743 946 732 917 l 732 124 b 776 10 732 56 743 26 l 776 0 l 647 0 l 647 10 b 664 124 661 31 664 56 l 664 186 b 374 -15 606 71 522 -15 b 93 301 188 -15 93 97 l 93 849 b 49 963 93 917 82 944 l 49 972 l 206 972 l 206 963 b 161 849 172 946 161 917 l 161 296 b 389 29 161 128 240 29 b 664 322 558 29 664 179 l 664 849 b 619 963 664 917 653 944 l 619 972 l 776 972 l 776 963 "},"Ü":{"ha":833,"x_min":0,"x_max":0,"o":"m 304 1161 b 251 1214 271 1161 251 1186 b 304 1267 251 1243 271 1267 b 357 1214 336 1267 357 1243 b 304 1161 357 1186 336 1161 m 499 1161 b 446 1214 465 1161 446 1186 b 499 1267 446 1243 465 1267 b 551 1214 531 1267 551 1243 b 499 1161 551 1186 531 1161 m 776 963 b 732 849 743 946 732 917 l 732 124 b 776 10 732 56 743 26 l 776 0 l 647 0 l 647 10 b 664 124 661 31 664 56 l 664 186 b 374 -15 606 71 522 -15 b 93 301 188 -15 93 97 l 93 849 b 49 963 93 917 82 944 l 49 972 l 206 972 l 206 963 b 161 849 172 946 161 917 l 161 296 b 389 29 161 128 240 29 b 664 322 558 29 664 179 l 664 849 b 619 963 664 917 653 944 l 619 972 l 776 972 l 776 963 "},"Ù":{"ha":833,"x_min":0,"x_max":0,"o":"m 496 1107 b 301 1233 413 1150 349 1193 l 333 1307 l 342 1307 b 501 1114 381 1224 419 1181 m 776 963 b 732 849 743 946 732 917 l 732 124 b 776 10 732 56 743 26 l 776 0 l 647 0 l 647 10 b 664 124 661 31 664 56 l 664 186 b 374 -15 606 71 522 -15 b 93 301 188 -15 93 97 l 93 849 b 49 963 93 917 82 944 l 49 972 l 206 972 l 206 963 b 161 849 172 946 161 917 l 161 296 b 389 29 161 128 240 29 b 664 322 558 29 664 179 l 664 849 b 619 963 664 917 653 944 l 619 972 l 776 972 l 776 963 "},"Ű":{"ha":833,"x_min":0,"x_max":0,"o":"m 438 1233 b 243 1107 390 1193 326 1150 l 238 1114 b 397 1307 319 1179 358 1224 l 406 1307 l 438 1233 m 390 1114 b 550 1307 472 1179 511 1224 l 558 1307 l 590 1233 b 396 1107 543 1193 479 1150 m 776 963 b 732 849 743 946 732 917 l 732 124 b 776 10 732 56 743 26 l 776 0 l 647 0 l 647 10 b 664 124 661 31 664 56 l 664 186 b 374 -15 606 71 522 -15 b 93 301 188 -15 93 97 l 93 849 b 49 963 93 917 82 944 l 49 972 l 206 972 l 206 963 b 161 849 172 946 161 917 l 161 296 b 389 29 161 128 240 29 b 664 322 558 29 664 179 l 664 849 b 619 963 664 917 653 944 l 619 972 l 776 972 l 776 963 "},"Ū":{"ha":833,"x_min":0,"x_max":0,"o":"m 383 1181 b 281 1175 350 1181 292 1178 l 275 1175 l 275 1224 l 281 1224 b 383 1218 292 1221 350 1218 l 428 1218 b 531 1224 461 1218 511 1221 l 536 1224 l 536 1175 l 531 1175 b 428 1181 511 1178 461 1181 l 383 1181 m 776 963 b 732 849 743 946 732 917 l 732 124 b 776 10 732 56 743 26 l 776 0 l 647 0 l 647 10 b 664 124 661 31 664 56 l 664 186 b 374 -15 606 71 522 -15 b 93 301 188 -15 93 97 l 93 849 b 49 963 93 917 82 944 l 49 972 l 206 972 l 206 963 b 161 849 172 946 161 917 l 161 296 b 389 29 161 128 240 29 b 664 322 558 29 664 179 l 664 849 b 619 963 664 917 653 944 l 619 972 l 776 972 l 776 963 "},"Ų":{"ha":833,"x_min":0,"x_max":0,"o":"m 664 186 b 374 -15 606 71 522 -15 b 93 301 188 -15 93 97 l 93 849 b 49 963 93 917 82 944 l 49 972 l 206 972 l 206 963 b 161 849 172 946 161 917 l 161 296 b 389 29 161 128 240 29 b 664 322 558 29 664 179 l 664 849 b 619 963 664 917 653 944 l 619 972 l 776 972 l 776 963 b 732 849 743 946 732 917 l 732 124 b 776 10 732 56 743 26 l 776 0 l 647 0 l 647 10 b 664 124 661 31 664 56 l 664 186 m 817 -210 b 703 -247 790 -229 749 -247 b 574 -133 635 -247 574 -207 b 654 -57 574 -85 611 -57 b 713 -75 679 -57 697 -64 l 692 -3 l 704 -3 l 761 -108 l 756 -114 b 682 -89 735 -100 708 -89 b 619 -146 647 -89 619 -114 b 706 -229 619 -193 656 -229 b 811 -201 747 -229 778 -218 "},"Ů":{"ha":833,"x_min":0,"x_max":0,"o":"m 401 1089 b 285 1206 328 1089 285 1140 b 401 1321 285 1269 328 1321 b 517 1206 474 1321 517 1269 b 401 1089 517 1140 474 1089 m 401 1296 b 326 1206 354 1296 326 1256 b 401 1114 326 1154 354 1114 b 475 1206 447 1114 475 1154 b 401 1296 475 1256 447 1296 m 776 963 b 732 849 743 946 732 917 l 732 124 b 776 10 732 56 743 26 l 776 0 l 647 0 l 647 10 b 664 124 661 31 664 56 l 664 186 b 374 -15 606 71 522 -15 b 93 301 188 -15 93 97 l 93 849 b 49 963 93 917 82 944 l 49 972 l 206 972 l 206 963 b 161 849 172 946 161 917 l 161 296 b 389 29 161 128 240 29 b 664 322 558 29 664 179 l 664 849 b 619 963 664 917 653 944 l 619 972 l 776 972 l 776 963 "},"V":{"ha":1018,"x_min":0,"x_max":0,"o":"m 989 972 l 989 963 b 899 843 953 942 924 900 l 518 -18 l 507 -18 l 124 840 b 29 963 97 899 76 942 l 29 972 l 192 972 l 192 963 b 193 843 154 943 160 915 l 533 103 l 864 844 b 858 963 893 911 900 942 l 858 972 "},"W":{"ha":1296,"x_min":0,"x_max":0,"o":"m 1267 972 l 1267 963 b 1176 843 1231 942 1201 900 l 796 -18 l 785 -18 l 651 282 l 518 -18 l 507 -18 l 124 840 b 29 963 97 899 76 942 l 29 972 l 193 972 l 193 963 b 194 843 156 943 161 915 l 535 104 l 632 324 l 401 840 b 307 963 375 899 354 942 l 307 972 l 471 972 l 471 963 b 472 843 433 943 439 915 l 671 411 l 864 844 b 858 963 893 911 900 942 l 858 972 l 989 972 l 989 963 b 899 843 953 942 924 900 l 690 369 l 813 104 l 1142 844 b 1136 963 1171 911 1178 942 l 1136 972 "},"Ẃ":{"ha":1296,"x_min":0,"x_max":0,"o":"m 746 1233 b 551 1107 699 1193 635 1150 l 546 1114 b 706 1307 628 1179 667 1224 l 714 1307 l 746 1233 m 1267 972 l 1267 963 b 1176 843 1231 942 1201 900 l 796 -18 l 785 -18 l 651 282 l 518 -18 l 507 -18 l 124 840 b 29 963 97 899 76 942 l 29 972 l 193 972 l 193 963 b 194 843 156 943 161 915 l 535 104 l 632 324 l 401 840 b 307 963 375 899 354 942 l 307 972 l 471 972 l 471 963 b 472 843 433 943 439 915 l 671 411 l 864 844 b 858 963 893 911 900 942 l 858 972 l 989 972 l 989 963 b 899 843 953 942 924 900 l 690 369 l 813 104 l 1142 844 b 1136 963 1171 911 1178 942 l 1136 972 "},"Ŵ":{"ha":1296,"x_min":0,"x_max":0,"o":"m 653 1207 b 511 1107 610 1165 572 1143 l 506 1114 b 649 1307 572 1174 613 1224 l 657 1307 b 800 1114 693 1224 733 1174 l 794 1107 b 653 1207 733 1143 696 1165 m 1267 972 l 1267 963 b 1176 843 1231 942 1201 900 l 796 -18 l 785 -18 l 651 282 l 518 -18 l 507 -18 l 124 840 b 29 963 97 899 76 942 l 29 972 l 193 972 l 193 963 b 194 843 156 943 161 915 l 535 104 l 632 324 l 401 840 b 307 963 375 899 354 942 l 307 972 l 471 972 l 471 963 b 472 843 433 943 439 915 l 671 411 l 864 844 b 858 963 893 911 900 942 l 858 972 l 989 972 l 989 963 b 899 843 953 942 924 900 l 690 369 l 813 104 l 1142 844 b 1136 963 1171 911 1178 942 l 1136 972 "},"Ẅ":{"ha":1296,"x_min":0,"x_max":0,"o":"m 553 1161 b 500 1214 519 1161 500 1186 b 553 1267 500 1243 519 1267 b 606 1214 585 1267 606 1243 b 553 1161 606 1186 585 1161 m 747 1161 b 694 1214 714 1161 694 1186 b 747 1267 694 1243 714 1267 b 800 1214 779 1267 800 1243 b 747 1161 800 1186 779 1161 m 1267 972 l 1267 963 b 1176 843 1231 942 1201 900 l 796 -18 l 785 -18 l 651 282 l 518 -18 l 507 -18 l 124 840 b 29 963 97 899 76 942 l 29 972 l 193 972 l 193 963 b 194 843 156 943 161 915 l 535 104 l 632 324 l 401 840 b 307 963 375 899 354 942 l 307 972 l 471 972 l 471 963 b 472 843 433 943 439 915 l 671 411 l 864 844 b 858 963 893 911 900 942 l 858 972 l 989 972 l 989 963 b 899 843 953 942 924 900 l 690 369 l 813 104 l 1142 844 b 1136 963 1171 911 1178 942 l 1136 972 "},"Ẁ":{"ha":1296,"x_min":0,"x_max":0,"o":"m 744 1107 b 550 1233 661 1150 597 1193 l 582 1307 l 590 1307 b 750 1114 629 1224 668 1181 m 1267 972 l 1267 963 b 1176 843 1231 942 1201 900 l 796 -18 l 785 -18 l 651 282 l 518 -18 l 507 -18 l 124 840 b 29 963 97 899 76 942 l 29 972 l 193 972 l 193 963 b 194 843 156 943 161 915 l 535 104 l 632 324 l 401 840 b 307 963 375 899 354 942 l 307 972 l 471 972 l 471 963 b 472 843 433 943 439 915 l 671 411 l 864 844 b 858 963 893 911 900 942 l 858 972 l 989 972 l 989 963 b 899 843 953 942 924 900 l 690 369 l 813 104 l 1142 844 b 1136 963 1171 911 1178 942 l 1136 972 "},"X":{"ha":1029,"x_min":0,"x_max":0,"o":"m 903 93 b 999 10 931 60 961 31 l 999 0 l 840 0 l 840 10 b 800 113 864 18 849 54 l 504 475 l 189 113 b 149 10 139 54 125 18 l 149 0 l 31 0 l 31 10 b 126 93 68 31 99 61 l 482 501 l 168 886 b 72 963 138 924 110 944 l 72 972 l 240 972 l 240 963 b 257 885 215 947 226 922 l 528 554 l 815 885 b 832 963 847 922 857 947 l 832 972 l 957 972 l 957 963 b 861 886 919 944 893 924 l 549 526 l 903 93 "},"Y":{"ha":1026,"x_min":0,"x_max":0,"o":"m 997 972 l 997 963 b 901 879 960 942 931 911 l 540 468 l 540 124 b 585 10 540 57 551 26 l 585 0 l 428 0 l 428 10 b 472 124 461 28 472 56 l 472 468 l 125 879 b 29 963 97 913 67 942 l 29 972 l 192 972 l 192 963 b 232 860 168 954 183 918 l 526 504 l 838 858 b 878 961 889 917 901 953 l 878 971 "},"Ý":{"ha":1026,"x_min":0,"x_max":0,"o":"m 603 1233 b 408 1107 556 1193 492 1150 l 403 1114 b 563 1307 485 1179 524 1224 l 571 1307 l 603 1233 m 997 972 l 997 963 b 901 879 960 942 931 911 l 540 468 l 540 124 b 585 10 540 57 551 26 l 585 0 l 428 0 l 428 10 b 472 124 461 28 472 56 l 472 468 l 125 879 b 29 963 97 913 67 942 l 29 972 l 192 972 l 192 963 b 232 860 168 954 183 918 l 526 504 l 838 858 b 878 961 889 917 901 953 l 878 971 "},"Ŷ":{"ha":1026,"x_min":0,"x_max":0,"o":"m 510 1207 b 368 1107 467 1165 429 1143 l 363 1114 b 506 1307 429 1174 469 1224 l 514 1307 b 657 1114 550 1224 590 1174 l 651 1107 b 510 1207 590 1143 553 1165 m 997 972 l 997 963 b 901 879 960 942 931 911 l 540 468 l 540 124 b 585 10 540 57 551 26 l 585 0 l 428 0 l 428 10 b 472 124 461 28 472 56 l 472 468 l 125 879 b 29 963 97 913 67 942 l 29 972 l 192 972 l 192 963 b 232 860 168 954 183 918 l 526 504 l 838 858 b 878 961 889 917 901 953 l 878 971 "},"Ÿ":{"ha":1026,"x_min":0,"x_max":0,"o":"m 410 1161 b 357 1214 376 1161 357 1186 b 410 1267 357 1243 376 1267 b 463 1214 442 1267 463 1243 b 410 1161 463 1186 442 1161 m 604 1161 b 551 1214 571 1161 551 1186 b 604 1267 551 1243 571 1267 b 657 1214 636 1267 657 1243 b 604 1161 657 1186 636 1161 m 997 972 l 997 963 b 901 879 960 942 931 911 l 540 468 l 540 124 b 585 10 540 57 551 26 l 585 0 l 428 0 l 428 10 b 472 124 461 28 472 56 l 472 468 l 125 879 b 29 963 97 913 67 942 l 29 972 l 192 972 l 192 963 b 232 860 168 954 183 918 l 526 504 l 838 858 b 878 961 889 917 901 953 l 878 971 "},"Ỳ":{"ha":1026,"x_min":0,"x_max":0,"o":"m 601 1107 b 407 1233 518 1150 454 1193 l 439 1307 l 447 1307 b 607 1114 486 1224 525 1181 m 997 972 l 997 963 b 901 879 960 942 931 911 l 540 468 l 540 124 b 585 10 540 57 551 26 l 585 0 l 428 0 l 428 10 b 472 124 461 28 472 56 l 472 468 l 125 879 b 29 963 97 913 67 942 l 29 972 l 192 972 l 192 963 b 232 860 168 954 183 918 l 526 504 l 838 858 b 878 961 889 917 901 953 l 878 971 "},"Z":{"ha":896,"x_min":0,"x_max":0,"o":"m 44 10 b 239 221 118 69 168 117 l 731 940 l 268 940 b 67 892 168 940 108 928 l 58 892 l 36 972 l 863 972 l 863 963 b 753 847 814 925 785 893 l 190 32 l 596 32 b 835 132 717 32 772 50 l 842 128 l 774 0 l 44 0 "},"Ź":{"ha":896,"x_min":0,"x_max":0,"o":"m 338 1114 b 497 1307 419 1179 458 1224 l 506 1307 l 538 1233 b 343 1107 490 1193 426 1150 l 338 1114 m 44 10 b 239 221 118 69 168 117 l 731 940 l 268 940 b 67 892 168 940 108 928 l 58 892 l 36 972 l 863 972 l 863 963 b 753 847 814 925 785 893 l 190 32 l 596 32 b 835 132 717 32 772 50 l 842 128 l 774 0 l 44 0 "},"Ž":{"ha":896,"x_min":0,"x_max":0,"o":"m 592 1300 b 449 1107 525 1240 485 1190 l 440 1107 b 297 1300 404 1190 364 1240 l 303 1307 b 444 1207 364 1271 401 1249 b 586 1307 488 1249 525 1271 l 592 1300 m 44 10 b 239 221 118 69 168 117 l 731 940 l 268 940 b 67 892 168 940 108 928 l 58 892 l 36 972 l 863 972 l 863 963 b 753 847 814 925 785 893 l 190 32 l 596 32 b 835 132 717 32 772 50 l 842 128 l 774 0 l 44 0 "},"Ż":{"ha":896,"x_min":0,"x_max":0,"o":"m 444 1161 b 392 1214 411 1161 392 1186 b 444 1267 392 1243 411 1267 b 497 1214 476 1267 497 1243 b 444 1161 497 1186 476 1161 m 44 10 b 239 221 118 69 168 117 l 731 940 l 268 940 b 67 892 168 940 108 928 l 58 892 l 36 972 l 863 972 l 863 963 b 753 847 814 925 785 893 l 190 32 l 596 32 b 835 132 717 32 772 50 l 842 128 l 774 0 l 44 0 "},"a":{"ha":438,"x_min":0,"x_max":0,"o":"m 361 124 b 419 32 361 72 378 43 l 419 22 l 307 -14 l 300 -6 l 300 86 b 126 -17 233 18 181 -17 b 28 111 61 -17 28 54 b 156 215 28 149 50 175 l 300 269 l 300 346 b 204 453 300 407 289 453 b 114 400 146 453 113 444 l 115 351 l 108 347 l 38 371 b 103 450 38 406 68 428 b 244 504 147 479 190 504 b 361 367 313 504 361 461 l 361 124 m 157 33 b 300 115 189 33 243 60 l 300 249 l 178 197 b 99 122 124 175 99 156 b 157 33 99 82 119 33 "},"á":{"ha":438,"x_min":0,"x_max":0,"o":"m 314 747 b 119 621 267 707 203 664 l 114 628 b 274 821 196 693 235 738 l 282 821 l 314 747 m 361 124 b 419 32 361 72 378 43 l 419 22 l 307 -14 l 300 -6 l 300 86 b 126 -17 233 18 181 -17 b 28 111 61 -17 28 54 b 156 215 28 149 50 175 l 300 269 l 300 346 b 204 453 300 407 289 453 b 114 400 146 453 113 444 l 115 351 l 108 347 l 38 371 b 103 450 38 406 68 428 b 244 504 147 479 190 504 b 361 367 313 504 361 461 l 361 124 m 157 33 b 300 115 189 33 243 60 l 300 249 l 178 197 b 99 122 124 175 99 156 b 157 33 99 82 119 33 "},"ă":{"ha":438,"x_min":0,"x_max":0,"o":"m 218 603 b 110 733 144 603 101 654 l 124 733 b 218 642 129 668 164 642 b 313 733 271 642 306 668 l 326 733 b 218 603 333 654 290 603 m 361 124 b 419 32 361 72 378 43 l 419 22 l 307 -14 l 300 -6 l 300 86 b 126 -17 233 18 181 -17 b 28 111 61 -17 28 54 b 156 215 28 149 50 175 l 300 269 l 300 346 b 204 453 300 407 289 453 b 114 400 146 453 113 444 l 115 351 l 108 347 l 38 371 b 103 450 38 406 68 428 b 244 504 147 479 190 504 b 361 367 313 504 361 461 l 361 124 m 157 33 b 300 115 189 33 243 60 l 300 249 l 178 197 b 99 122 124 175 99 156 b 157 33 99 82 119 33 "},"â":{"ha":438,"x_min":0,"x_max":0,"o":"m 221 721 b 79 621 178 679 140 657 l 74 628 b 217 821 140 688 181 738 l 225 821 b 368 628 261 738 301 688 l 363 621 b 221 721 301 657 264 679 m 361 124 b 419 32 361 72 378 43 l 419 22 l 307 -14 l 300 -6 l 300 86 b 126 -17 233 18 181 -17 b 28 111 61 -17 28 54 b 156 215 28 149 50 175 l 300 269 l 300 346 b 204 453 300 407 289 453 b 114 400 146 453 113 444 l 115 351 l 108 347 l 38 371 b 103 450 38 406 68 428 b 244 504 147 479 190 504 b 361 367 313 504 361 461 l 361 124 m 157 33 b 300 115 189 33 243 60 l 300 249 l 178 197 b 99 122 124 175 99 156 b 157 33 99 82 119 33 "},"ä":{"ha":438,"x_min":0,"x_max":0,"o":"m 121 675 b 68 728 88 675 68 700 b 121 781 68 757 88 781 b 174 728 153 781 174 757 b 121 675 174 700 153 675 m 315 675 b 263 728 282 675 263 700 b 315 781 263 757 282 781 b 368 728 347 781 368 757 b 315 675 368 700 347 675 m 361 124 b 419 32 361 72 378 43 l 419 22 l 307 -14 l 300 -6 l 300 86 b 126 -17 233 18 181 -17 b 28 111 61 -17 28 54 b 156 215 28 149 50 175 l 300 269 l 300 346 b 204 453 300 407 289 453 b 114 400 146 453 113 444 l 115 351 l 108 347 l 38 371 b 103 450 38 406 68 428 b 244 504 147 479 190 504 b 361 367 313 504 361 461 l 361 124 m 157 33 b 300 115 189 33 243 60 l 300 249 l 178 197 b 99 122 124 175 99 156 b 157 33 99 82 119 33 "},"à":{"ha":438,"x_min":0,"x_max":0,"o":"m 313 621 b 118 747 229 664 165 707 l 150 821 l 158 821 b 318 628 197 738 236 694 m 361 124 b 419 32 361 72 378 43 l 419 22 l 307 -14 l 300 -6 l 300 86 b 126 -17 233 18 181 -17 b 28 111 61 -17 28 54 b 156 215 28 149 50 175 l 300 269 l 300 346 b 204 453 300 407 289 453 b 114 400 146 453 113 444 l 115 351 l 108 347 l 38 371 b 103 450 38 406 68 428 b 244 504 147 479 190 504 b 361 367 313 504 361 461 l 361 124 m 157 33 b 300 115 189 33 243 60 l 300 249 l 178 197 b 99 122 124 175 99 156 b 157 33 99 82 119 33 "},"ā":{"ha":438,"x_min":0,"x_max":0,"o":"m 200 694 b 97 689 167 694 108 692 l 92 689 l 92 738 l 97 738 b 200 732 108 735 167 732 l 244 732 b 347 738 278 732 328 735 l 353 738 l 353 689 l 347 689 b 244 694 328 692 278 694 l 200 694 m 361 124 b 419 32 361 72 378 43 l 419 22 l 307 -14 l 300 -6 l 300 86 b 126 -17 233 18 181 -17 b 28 111 61 -17 28 54 b 156 215 28 149 50 175 l 300 269 l 300 346 b 204 453 300 407 289 453 b 114 400 146 453 113 444 l 115 351 l 108 347 l 38 371 b 103 450 38 406 68 428 b 244 504 147 479 190 504 b 361 367 313 504 361 461 l 361 124 m 157 33 b 300 115 189 33 243 60 l 300 249 l 178 197 b 99 122 124 175 99 156 b 157 33 99 82 119 33 "},"ą":{"ha":438,"x_min":0,"x_max":0,"o":"m 361 124 b 419 32 361 72 378 43 l 419 22 l 307 -14 l 300 -6 l 300 86 b 140 -15 239 25 190 -10 l 190 -108 l 185 -114 b 111 -89 164 -100 138 -89 b 49 -146 76 -89 49 -114 b 135 -229 49 -193 85 -229 b 240 -201 176 -229 207 -218 l 246 -210 b 132 -247 219 -229 178 -247 b 3 -133 64 -247 3 -207 b 83 -57 3 -85 40 -57 b 142 -75 108 -57 126 -64 l 125 -17 b 28 111 61 -15 28 54 b 156 215 28 149 50 175 l 300 269 l 300 346 b 204 453 300 407 289 453 b 114 400 146 453 113 444 l 115 351 l 108 347 l 38 371 b 103 450 38 406 68 428 b 244 504 147 479 190 504 b 361 367 313 504 361 461 l 361 124 m 157 33 b 300 115 189 33 243 60 l 300 249 l 178 197 b 99 122 124 175 99 156 b 157 33 99 82 119 33 "},"å":{"ha":438,"x_min":0,"x_max":0,"o":"m 218 603 b 101 719 144 603 101 654 b 218 835 101 783 144 835 b 333 719 290 835 333 783 b 218 603 333 654 290 603 m 218 810 b 143 719 171 810 143 769 b 218 628 143 668 171 628 b 292 719 264 628 292 668 b 218 810 292 769 264 810 m 361 124 b 419 32 361 72 378 43 l 419 22 l 307 -14 l 300 -6 l 300 86 b 126 -17 233 18 181 -17 b 28 111 61 -17 28 54 b 156 215 28 149 50 175 l 300 269 l 300 346 b 204 453 300 407 289 453 b 114 400 146 453 113 444 l 115 351 l 108 347 l 38 371 b 103 450 38 406 68 428 b 244 504 147 479 190 504 b 361 367 313 504 361 461 l 361 124 m 157 33 b 300 115 189 33 243 60 l 300 249 l 178 197 b 99 122 124 175 99 156 b 157 33 99 82 119 33 "},"ã":{"ha":438,"x_min":0,"x_max":0,"o":"m 129 756 b 72 654 113 756 94 739 l 60 656 b 139 813 72 756 106 813 b 299 690 192 813 263 690 b 356 797 317 690 336 713 l 369 796 b 288 639 356 697 322 639 b 129 756 235 639 158 756 m 361 124 b 419 32 361 72 378 43 l 419 22 l 307 -14 l 300 -6 l 300 86 b 126 -17 233 18 181 -17 b 28 111 61 -17 28 54 b 156 215 28 149 50 175 l 300 269 l 300 346 b 204 453 300 407 289 453 b 114 400 146 453 113 444 l 115 351 l 108 347 l 38 371 b 103 450 38 406 68 428 b 244 504 147 479 190 504 b 361 367 313 504 361 461 l 361 124 m 157 33 b 300 115 189 33 243 60 l 300 249 l 178 197 b 99 122 124 175 99 156 b 157 33 99 82 119 33 "},"æ":{"ha":788,"x_min":0,"x_max":0,"o":"m 739 94 b 525 -12 668 26 613 -12 b 338 115 442 -12 371 32 b 138 -17 250 22 194 -17 b 39 111 72 -17 39 54 b 167 215 39 149 61 181 l 317 265 l 317 346 b 215 453 317 407 300 453 b 125 400 157 453 124 444 l 126 351 l 119 347 l 49 371 b 114 450 49 406 79 428 b 256 504 158 479 201 504 b 365 408 308 504 350 476 b 535 504 404 468 464 504 b 722 349 642 504 711 442 l 372 257 b 553 40 376 121 458 40 b 728 106 622 40 675 61 m 528 469 b 372 281 450 469 378 413 l 644 360 b 528 469 643 429 600 469 m 168 33 b 331 136 201 33 256 61 b 317 231 321 164 317 196 l 317 242 l 189 197 b 110 122 135 178 110 156 b 168 33 110 82 131 33 "},"b":{"ha":569,"x_min":0,"x_max":0,"o":"m 338 504 b 535 267 453 504 535 422 b 293 -12 535 124 444 -12 b 136 36 189 -12 151 36 b 60 -36 122 36 99 15 l 50 -31 b 74 121 69 19 74 57 l 74 857 b 15 949 74 908 57 938 l 15 958 l 139 1000 l 146 992 b 135 876 138 958 135 933 l 135 415 b 338 504 194 469 267 504 m 297 25 b 481 236 401 25 481 92 b 300 453 481 374 400 453 b 135 386 238 453 181 429 l 135 139 b 297 25 135 57 233 25 "},"c":{"ha":482,"x_min":0,"x_max":0,"o":"m 457 92 b 243 -14 386 25 331 -14 b 35 231 128 -14 35 74 b 267 500 35 385 125 500 b 451 468 338 500 394 486 l 438 388 l 429 388 b 261 471 379 450 331 471 b 89 271 167 471 89 410 b 274 42 89 129 178 42 b 447 104 343 42 393 58 "},"ć":{"ha":482,"x_min":0,"x_max":0,"o":"m 150 628 b 310 821 232 693 271 738 l 318 821 l 350 747 b 156 621 303 707 239 664 l 150 628 m 457 92 b 243 -14 386 25 331 -14 b 35 231 128 -14 35 74 b 267 500 35 385 125 500 b 451 468 338 500 394 486 l 438 388 l 429 388 b 261 471 379 450 331 471 b 89 271 167 471 89 410 b 274 42 89 129 178 42 b 447 104 343 42 393 58 "},"č":{"ha":482,"x_min":0,"x_max":0,"o":"m 404 814 b 261 621 338 754 297 704 l 253 621 b 110 814 217 704 176 754 l 115 821 b 257 721 176 785 214 763 b 399 821 300 763 338 785 l 404 814 m 457 92 b 243 -14 386 25 331 -14 b 35 231 128 -14 35 74 b 267 500 35 385 125 500 b 451 468 338 500 394 486 l 438 388 l 429 388 b 261 471 379 450 331 471 b 89 271 167 471 89 410 b 274 42 89 129 178 42 b 447 104 343 42 393 58 "},"ç":{"ha":482,"x_min":0,"x_max":0,"o":"m 292 -57 b 372 -133 335 -57 372 -85 b 243 -247 372 -207 311 -247 b 129 -210 197 -247 156 -229 l 135 -201 b 240 -229 168 -218 199 -229 b 326 -146 290 -229 326 -193 b 264 -89 326 -114 299 -89 b 190 -114 238 -89 211 -100 l 185 -108 l 236 -14 b 35 231 124 -10 35 76 b 267 500 35 385 125 500 b 451 468 338 500 394 486 l 438 388 l 429 388 b 261 471 379 450 331 471 b 89 271 167 471 89 410 b 274 42 89 129 178 42 b 447 104 343 42 393 58 l 457 92 b 251 -14 389 26 333 -11 l 233 -75 b 292 -57 249 -64 267 -57 "},"ċ":{"ha":482,"x_min":0,"x_max":0,"o":"m 257 675 b 204 728 224 675 204 700 b 257 781 204 757 224 781 b 310 728 289 781 310 757 b 257 675 310 700 289 675 m 457 92 b 243 -14 386 25 331 -14 b 35 231 128 -14 35 74 b 267 500 35 385 125 500 b 451 468 338 500 394 486 l 438 388 l 429 388 b 261 471 379 450 331 471 b 89 271 167 471 89 410 b 274 42 89 129 178 42 b 447 104 343 42 393 58 "},"d":{"ha":575,"x_min":0,"x_max":0,"o":"m 496 124 b 554 32 496 72 513 43 l 554 22 l 442 -14 l 435 -6 l 435 76 b 232 -12 375 22 303 -12 b 35 225 117 -12 35 69 b 276 504 35 368 125 504 b 435 454 333 504 388 489 l 435 857 b 376 949 435 908 418 938 l 376 958 l 500 1000 l 507 992 b 496 876 499 958 496 933 l 496 124 m 269 39 b 435 106 332 39 389 63 l 435 353 b 272 467 435 435 336 467 b 89 256 168 467 89 400 b 269 39 89 118 164 39 "},"ð":{"ha":561,"x_min":0,"x_max":0,"o":"m 535 835 b 435 814 513 832 467 822 l 381 799 b 501 363 464 657 501 521 b 239 -12 501 118 376 -12 b 35 225 117 -12 35 83 b 276 504 35 368 125 504 b 438 415 336 504 403 478 b 347 790 432 535 411 654 l 285 772 b 188 738 253 764 208 746 l 182 736 l 168 786 l 174 788 b 275 808 196 790 242 799 l 331 824 b 222 994 301 878 267 935 l 233 1003 b 360 832 283 944 325 888 l 424 850 b 521 885 457 860 500 876 l 526 886 l 540 836 l 535 835 m 269 39 b 440 281 358 39 440 101 l 440 282 b 272 467 440 429 336 467 b 89 256 168 467 89 400 b 269 39 89 118 165 39 "},"ď":{"ha":575,"x_min":0,"x_max":0,"o":"m 496 124 b 554 32 496 72 513 43 l 554 22 l 442 -14 l 435 -6 l 435 76 b 232 -12 375 22 303 -12 b 35 225 117 -12 35 69 b 276 504 35 368 125 504 b 435 454 333 504 388 489 l 435 857 b 376 949 435 908 418 938 l 376 958 l 500 1000 l 507 992 b 496 876 499 958 496 933 l 496 124 m 632 992 b 651 906 643 972 651 938 b 567 722 651 833 619 781 l 558 728 b 597 856 588 781 597 818 b 561 943 597 893 582 919 l 624 992 l 632 992 m 269 39 b 435 106 332 39 389 63 l 435 353 b 272 467 435 435 336 467 b 89 256 168 467 89 400 b 269 39 89 118 164 39 "},"đ":{"ha":575,"x_min":0,"x_max":0,"o":"m 594 822 l 594 771 l 589 771 b 496 778 569 774 528 776 l 496 124 b 554 32 496 72 513 43 l 554 22 l 442 -14 l 435 -6 l 435 76 b 232 -12 375 22 303 -12 b 35 225 117 -12 35 69 b 276 504 35 368 125 504 b 435 454 333 504 388 489 l 435 778 l 372 778 b 269 771 339 778 292 774 l 264 771 l 264 822 l 269 822 b 372 815 292 819 339 815 l 435 815 l 435 857 b 376 949 435 908 418 938 l 376 958 l 500 1000 l 507 992 b 496 876 499 958 496 933 l 496 815 b 589 822 528 817 569 819 m 435 353 b 272 467 435 435 336 467 b 89 256 168 467 89 400 b 269 39 89 118 164 39 b 435 106 332 39 389 63 l 435 353 "},"e":{"ha":481,"x_min":0,"x_max":0,"o":"m 458 94 b 244 -14 388 26 332 -14 b 36 233 129 -14 36 76 b 254 500 36 390 126 500 b 442 321 358 500 442 440 l 94 307 b 92 265 93 294 92 281 b 272 39 92 126 176 39 b 447 106 342 39 394 61 m 247 469 b 97 331 181 469 117 428 l 364 354 b 247 469 363 429 319 469 "},"é":{"ha":481,"x_min":0,"x_max":0,"o":"m 340 747 b 146 621 293 707 229 664 l 140 628 b 300 821 222 693 261 738 l 308 821 l 340 747 m 458 94 b 244 -14 388 26 332 -14 b 36 233 129 -14 36 76 b 254 500 36 390 126 500 b 442 321 358 500 442 440 l 94 307 b 92 265 93 294 92 281 b 272 39 92 126 176 39 b 447 106 342 39 394 61 m 247 469 b 97 331 181 469 117 428 l 364 354 b 247 469 363 429 319 469 "},"ě":{"ha":481,"x_min":0,"x_max":0,"o":"m 243 621 b 100 814 207 704 167 754 l 106 821 b 247 721 167 785 204 763 b 389 821 290 763 328 785 l 394 814 b 251 621 328 754 288 704 l 243 621 m 458 94 b 244 -14 388 26 332 -14 b 36 233 129 -14 36 76 b 254 500 36 390 126 500 b 442 321 358 500 442 440 l 94 307 b 92 265 93 294 92 281 b 272 39 92 126 176 39 b 447 106 342 39 394 61 m 247 469 b 97 331 181 469 117 428 l 364 354 b 247 469 363 429 319 469 "},"ê":{"ha":481,"x_min":0,"x_max":0,"o":"m 247 721 b 106 621 204 679 167 657 l 100 628 b 243 821 167 688 207 738 l 251 821 b 394 628 288 738 328 688 l 389 621 b 247 721 328 657 290 679 m 458 94 b 244 -14 388 26 332 -14 b 36 233 129 -14 36 76 b 254 500 36 390 126 500 b 442 321 358 500 442 440 l 94 307 b 92 265 93 294 92 281 b 272 39 92 126 176 39 b 447 106 342 39 394 61 m 247 469 b 97 331 181 469 117 428 l 364 354 b 247 469 363 429 319 469 "},"ë":{"ha":481,"x_min":0,"x_max":0,"o":"m 147 675 b 94 728 114 675 94 700 b 147 781 94 757 114 781 b 200 728 179 781 200 757 b 147 675 200 700 179 675 m 342 675 b 289 728 308 675 289 700 b 342 781 289 757 308 781 b 394 728 374 781 394 757 b 342 675 394 700 374 675 m 458 94 b 244 -14 388 26 332 -14 b 36 233 129 -14 36 76 b 254 500 36 390 126 500 b 442 321 358 500 442 440 l 94 307 b 92 265 93 294 92 281 b 272 39 92 126 176 39 b 447 106 342 39 394 61 m 247 469 b 97 331 181 469 117 428 l 364 354 b 247 469 363 429 319 469 "},"ė":{"ha":481,"x_min":0,"x_max":0,"o":"m 247 675 b 194 728 214 675 194 700 b 247 781 194 757 214 781 b 300 728 279 781 300 757 b 247 675 300 700 279 675 m 458 94 b 244 -14 388 26 332 -14 b 36 233 129 -14 36 76 b 254 500 36 390 126 500 b 442 321 358 500 442 440 l 94 307 b 92 265 93 294 92 281 b 272 39 92 126 176 39 b 447 106 342 39 394 61 m 247 469 b 97 331 181 469 117 428 l 364 354 b 247 469 363 429 319 469 "},"è":{"ha":481,"x_min":0,"x_max":0,"o":"m 339 621 b 144 747 256 664 192 707 l 176 821 l 185 821 b 344 628 224 738 263 694 m 458 94 b 244 -14 388 26 332 -14 b 36 233 129 -14 36 76 b 254 500 36 390 126 500 b 442 321 358 500 442 440 l 94 307 b 92 265 93 294 92 281 b 272 39 92 126 176 39 b 447 106 342 39 394 61 m 247 469 b 97 331 181 469 117 428 l 364 354 b 247 469 363 429 319 469 "},"ē":{"ha":481,"x_min":0,"x_max":0,"o":"m 226 694 b 124 689 193 694 135 692 l 118 689 l 118 738 l 124 738 b 226 732 135 735 193 732 l 271 732 b 374 738 304 732 354 735 l 379 738 l 379 689 l 374 689 b 271 694 354 692 304 694 l 226 694 m 458 94 b 244 -14 388 26 332 -14 b 36 233 129 -14 36 76 b 254 500 36 390 126 500 b 442 321 358 500 442 440 l 94 307 b 92 265 93 294 92 281 b 272 39 92 126 176 39 b 447 106 342 39 394 61 m 247 469 b 97 331 181 469 117 428 l 364 354 b 247 469 363 429 319 469 "},"ę":{"ha":481,"x_min":0,"x_max":0,"o":"m 238 -229 b 343 -201 279 -229 310 -218 l 349 -210 b 235 -247 322 -229 281 -247 b 106 -133 167 -247 106 -207 b 186 -57 106 -85 143 -57 b 244 -75 211 -57 229 -64 l 226 -12 b 36 233 119 -4 36 85 b 254 500 36 390 126 500 b 442 321 358 500 442 440 l 94 307 b 92 265 93 294 92 281 b 272 39 92 126 176 39 b 447 106 342 39 394 61 l 458 94 b 244 -14 388 26 332 -14 l 242 -14 l 293 -108 l 288 -114 b 214 -89 267 -100 240 -89 b 151 -146 179 -89 151 -114 b 238 -229 151 -193 188 -229 m 247 469 b 97 331 181 469 117 428 l 364 354 b 247 469 363 429 319 469 "},"f":{"ha":344,"x_min":0,"x_max":0,"o":"m 271 1004 b 428 972 325 1004 371 992 l 414 893 l 406 893 b 265 971 367 950 321 971 b 146 813 196 971 146 924 l 146 486 l 332 486 l 332 446 l 146 446 l 146 88 b 190 8 146 40 157 25 l 190 0 l 40 0 l 40 8 b 85 88 74 26 85 40 l 85 446 l 32 446 l 32 486 l 85 486 l 85 772 b 271 1004 85 899 154 1004 "},"g":{"ha":535,"x_min":0,"x_max":0,"o":"m 413 -28 b 558 -156 492 -28 558 -61 b 264 -421 558 -265 465 -421 b 38 -253 121 -421 38 -335 b 121 -106 38 -201 60 -149 b 38 -28 81 -99 38 -78 b 154 119 38 17 68 68 b 39 303 83 151 39 221 b 242 503 39 413 132 503 b 322 486 269 503 297 497 l 519 486 l 519 446 l 367 460 b 446 303 415 422 446 365 b 242 101 446 192 364 101 b 179 110 219 101 199 104 b 93 -7 131 75 93 31 b 171 -49 93 -37 114 -49 b 413 -28 254 -49 338 -28 m 194 469 b 114 264 114 449 88 358 b 289 132 140 171 210 113 b 371 338 371 153 397 243 b 194 469 346 431 274 489 m 283 -360 b 518 -168 453 -360 518 -276 b 419 -86 518 -108 492 -86 b 157 -110 353 -86 235 -110 l 151 -110 b 78 -228 94 -149 78 -189 b 283 -360 78 -319 163 -360 "},"ğ":{"ha":535,"x_min":0,"x_max":0,"o":"m 239 603 b 131 733 165 603 122 654 l 144 733 b 239 642 150 668 185 642 b 333 733 292 642 326 668 l 347 733 b 239 603 354 654 311 603 m 413 -28 b 558 -156 492 -28 558 -61 b 264 -421 558 -265 465 -421 b 38 -253 121 -421 38 -335 b 121 -106 38 -201 60 -149 b 38 -28 81 -99 38 -78 b 154 119 38 17 68 68 b 39 303 83 151 39 221 b 242 503 39 413 132 503 b 322 486 269 503 297 497 l 519 486 l 519 446 l 367 460 b 446 303 415 422 446 365 b 242 101 446 192 364 101 b 179 110 219 101 199 104 b 93 -7 131 75 93 31 b 171 -49 93 -37 114 -49 b 413 -28 254 -49 338 -28 m 194 469 b 114 264 114 449 88 358 b 289 132 140 171 210 113 b 371 338 371 153 397 243 b 194 469 346 431 274 489 m 283 -360 b 518 -168 453 -360 518 -276 b 419 -86 518 -108 492 -86 b 157 -110 353 -86 235 -110 l 151 -110 b 78 -228 94 -149 78 -189 b 283 -360 78 -319 163 -360 "},"ģ":{"ha":535,"x_min":0,"x_max":0,"o":"m 215 597 b 196 683 204 617 196 651 b 281 867 196 756 228 808 l 289 861 b 250 733 260 808 250 771 b 286 646 250 696 265 669 l 224 597 m 413 -28 b 558 -156 492 -28 558 -61 b 264 -421 558 -265 465 -421 b 38 -253 121 -421 38 -335 b 121 -106 38 -201 60 -149 b 38 -28 81 -99 38 -78 b 154 119 38 17 68 68 b 39 303 83 151 39 221 b 242 503 39 413 132 503 b 322 486 269 503 297 497 l 519 486 l 519 446 l 367 460 b 446 303 415 422 446 365 b 242 101 446 192 364 101 b 179 110 219 101 199 104 b 93 -7 131 75 93 31 b 171 -49 93 -37 114 -49 b 413 -28 254 -49 338 -28 m 194 469 b 114 264 114 449 88 358 b 289 132 140 171 210 113 b 371 338 371 153 397 243 b 194 469 346 431 274 489 m 283 -360 b 518 -168 453 -360 518 -276 b 419 -86 518 -108 492 -86 b 157 -110 353 -86 235 -110 l 151 -110 b 78 -228 94 -149 78 -189 b 283 -360 78 -319 163 -360 "},"ġ":{"ha":535,"x_min":0,"x_max":0,"o":"m 242 675 b 189 728 208 675 189 700 b 242 781 189 757 208 781 b 294 728 274 781 294 757 b 242 675 294 700 274 675 m 413 -28 b 558 -156 492 -28 558 -61 b 264 -421 558 -265 465 -421 b 38 -253 121 -421 38 -335 b 121 -106 38 -201 60 -149 b 38 -28 81 -99 38 -78 b 154 119 38 17 68 68 b 39 303 83 151 39 221 b 242 503 39 413 132 503 b 322 486 269 503 297 497 l 519 486 l 519 446 l 367 460 b 446 303 415 422 446 365 b 242 101 446 192 364 101 b 179 110 219 101 199 104 b 93 -7 131 75 93 31 b 171 -49 93 -37 114 -49 b 413 -28 254 -49 338 -28 m 194 469 b 114 264 114 449 88 358 b 289 132 140 171 210 113 b 371 338 371 153 397 243 b 194 469 346 431 274 489 m 283 -360 b 518 -168 453 -360 518 -276 b 419 -86 518 -108 492 -86 b 157 -110 353 -86 235 -110 l 151 -110 b 78 -228 94 -149 78 -189 b 283 -360 78 -319 163 -360 "},"h":{"ha":524,"x_min":0,"x_max":0,"o":"m 453 88 b 497 8 453 40 464 25 l 497 0 l 347 0 l 347 8 b 392 88 381 26 392 40 l 392 322 b 313 442 392 404 367 442 b 165 381 263 442 224 425 l 138 360 l 138 88 b 182 8 138 40 149 25 l 182 0 l 32 0 l 32 8 b 76 88 65 26 76 40 l 76 857 b 4 949 76 908 60 938 l 4 958 l 142 1000 l 149 992 b 138 869 140 951 138 926 l 138 389 l 157 404 b 340 504 232 464 281 504 b 453 351 404 504 453 447 l 453 88 "},"ħ":{"ha":524,"x_min":0,"x_max":0,"o":"m 453 88 b 497 8 453 40 464 25 l 497 0 l 347 0 l 347 8 b 392 88 381 26 392 40 l 392 322 b 313 442 392 404 367 442 b 165 381 263 442 224 425 l 138 360 l 138 88 b 182 8 138 40 149 25 l 182 0 l 32 0 l 32 8 b 76 88 65 26 76 40 l 76 782 b -4 775 47 781 14 778 l -10 775 l -10 826 l -4 826 b 76 819 14 824 47 821 l 76 857 b 4 949 76 908 60 938 l 4 958 l 142 1000 l 149 992 b 138 869 140 951 138 926 l 138 819 l 213 819 b 315 826 246 819 293 824 l 321 826 l 321 775 l 315 775 b 213 782 293 778 246 782 l 138 782 l 138 389 l 157 404 b 340 504 232 464 281 504 b 453 351 404 504 453 447 l 453 88 "},"i":{"ha":222,"x_min":0,"x_max":0,"o":"m 113 675 b 60 728 79 675 60 700 b 113 781 60 757 79 781 b 165 728 144 781 165 757 b 113 675 165 700 144 675 m 144 88 b 189 8 144 40 156 25 l 189 0 l 39 0 l 39 8 b 83 88 72 26 83 40 l 83 371 b 25 463 83 422 67 451 l 25 471 l 149 514 l 156 506 b 144 390 147 472 144 447 l 144 88 "},"ı":{"ha":222,"x_min":0,"x_max":0,"o":"m 144 88 b 189 8 144 40 156 25 l 189 0 l 39 0 l 39 8 b 83 88 72 26 83 40 l 83 371 b 25 463 83 422 67 451 l 25 471 l 149 514 l 156 506 b 144 390 147 472 144 447 l 144 88 "},"í":{"ha":222,"x_min":0,"x_max":0,"o":"m 4 628 b 164 821 86 693 125 738 l 172 821 l 204 747 b 10 621 157 707 93 664 l 4 628 m 144 88 b 189 8 144 40 156 25 l 189 0 l 39 0 l 39 8 b 83 88 72 26 83 40 l 83 371 b 25 463 83 422 67 451 l 25 471 l 149 514 l 156 506 b 144 390 147 472 144 447 l 144 88 "},"î":{"ha":222,"x_min":0,"x_max":0,"o":"m 253 621 b 111 721 192 657 154 679 b -31 621 68 679 31 657 l -36 628 b 107 821 31 688 71 738 l 115 821 b 258 628 151 738 192 688 m 144 88 b 189 8 144 40 156 25 l 189 0 l 39 0 l 39 8 b 83 88 72 26 83 40 l 83 371 b 25 463 83 422 67 451 l 25 471 l 149 514 l 156 506 b 144 390 147 472 144 447 l 144 88 "},"ï":{"ha":222,"x_min":0,"x_max":0,"o":"m 11 675 b -42 728 -22 675 -42 700 b 11 781 -42 757 -22 781 b 64 728 43 781 64 757 b 11 675 64 700 43 675 m 206 675 b 153 728 172 675 153 700 b 206 781 153 757 172 781 b 258 728 238 781 258 757 b 206 675 258 700 238 675 m 144 88 b 189 8 144 40 156 25 l 189 0 l 39 0 l 39 8 b 83 88 72 26 83 40 l 83 371 b 25 463 83 422 67 451 l 25 471 l 149 514 l 156 506 b 144 390 147 472 144 447 l 144 88 "},"ì":{"ha":222,"x_min":0,"x_max":0,"o":"m 203 621 b 8 747 119 664 56 707 l 40 821 l 49 821 b 208 628 88 738 126 694 m 144 88 b 189 8 144 40 156 25 l 189 0 l 39 0 l 39 8 b 83 88 72 26 83 40 l 83 371 b 25 463 83 422 67 451 l 25 471 l 149 514 l 156 506 b 144 390 147 472 144 447 l 144 88 "},"ī":{"ha":222,"x_min":0,"x_max":0,"o":"m 238 689 b 135 694 218 692 168 694 l 90 694 b -12 689 57 694 -1 692 l -18 689 l -18 738 l -12 738 b 90 732 -1 735 57 732 l 135 732 b 238 738 168 732 218 735 l 243 738 l 243 689 l 238 689 m 144 88 b 189 8 144 40 156 25 l 189 0 l 39 0 l 39 8 b 83 88 72 26 83 40 l 83 371 b 25 463 83 422 67 451 l 25 471 l 149 514 l 156 506 b 144 390 147 472 144 447 l 144 88 "},"į":{"ha":222,"x_min":0,"x_max":0,"o":"m 111 675 b 58 728 78 675 58 700 b 111 781 58 757 78 781 b 164 728 143 781 164 757 b 111 675 164 700 143 675 m 224 -196 b 110 -233 197 -215 156 -233 b -19 -119 42 -233 -19 -193 b 61 -43 -19 -71 18 -43 b 119 -61 86 -43 104 -50 l 101 0 l 39 0 l 39 8 b 83 88 72 26 83 40 l 83 371 b 25 463 83 422 67 451 l 25 471 l 149 514 l 156 506 b 144 390 147 472 144 447 l 144 88 b 189 8 144 40 156 25 l 189 0 l 117 0 l 168 -94 l 163 -100 b 89 -75 142 -86 115 -75 b 26 -132 54 -75 26 -100 b 113 -215 26 -179 63 -215 b 218 -187 154 -215 185 -204 "},"j":{"ha":211,"x_min":0,"x_max":0,"o":"m 107 675 b 54 728 74 675 54 700 b 107 781 54 757 74 781 b 160 728 139 781 160 757 b 107 675 160 700 139 675 m 143 514 l 150 506 b 139 390 142 472 139 447 l 139 -32 b 28 -457 139 -204 113 -315 l 18 -453 b 78 -29 74 -287 78 -190 l 78 371 b 19 463 78 422 61 451 l 19 471 "},"k":{"ha":586,"x_min":0,"x_max":0,"o":"m 457 99 b 575 8 500 50 532 25 l 575 0 l 396 0 l 396 8 b 376 90 424 25 406 57 l 231 260 l 138 185 l 138 89 b 182 10 138 42 149 26 l 182 0 l 32 0 l 32 10 b 76 89 65 28 76 42 l 76 857 b 4 949 76 908 60 938 l 4 958 l 142 1000 l 149 992 b 138 869 140 951 138 926 l 138 218 l 350 396 b 393 478 386 425 413 461 l 393 486 l 529 486 l 529 478 b 389 388 485 458 443 431 l 278 299 l 457 99 "},"ķ":{"ha":586,"x_min":0,"x_max":0,"o":"m 457 99 b 575 8 500 50 532 25 l 575 0 l 396 0 l 396 8 b 376 90 424 25 406 57 l 231 260 l 138 185 l 138 89 b 182 10 138 42 149 26 l 182 0 l 32 0 l 32 10 b 76 89 65 28 76 42 l 76 857 b 4 949 76 908 60 938 l 4 958 l 142 1000 l 149 992 b 138 869 140 951 138 926 l 138 218 l 350 396 b 393 478 386 425 413 461 l 393 486 l 529 486 l 529 478 b 389 388 485 458 443 431 l 278 299 l 457 99 m 285 -72 b 304 -158 296 -92 304 -126 b 219 -342 304 -231 272 -283 l 211 -336 b 250 -208 240 -283 250 -246 b 214 -121 250 -171 235 -144 l 276 -72 "},"l":{"ha":214,"x_min":0,"x_max":0,"o":"m 138 89 b 182 10 138 42 149 26 l 182 0 l 32 0 l 32 10 b 76 89 65 28 76 42 l 76 857 b 4 949 76 908 60 938 l 4 958 l 142 1000 l 149 992 b 138 869 140 951 138 926 l 138 89 "},"ĺ":{"ha":214,"x_min":0,"x_max":0,"o":"m 0 1114 b 160 1307 82 1179 121 1224 l 168 1307 l 200 1233 b 6 1107 153 1193 89 1150 l 0 1114 m 138 89 b 182 10 138 42 149 26 l 182 0 l 32 0 l 32 10 b 76 89 65 28 76 42 l 76 857 b 4 949 76 908 60 938 l 4 958 l 142 1000 l 149 992 b 138 869 140 951 138 926 l 138 89 "},"ľ":{"ha":214,"x_min":0,"x_max":0,"o":"m 254 1300 b 111 1107 188 1240 147 1190 l 103 1107 b -40 1300 67 1190 26 1240 l -35 1307 b 107 1207 26 1271 64 1249 b 249 1307 150 1249 188 1271 l 254 1300 m 138 89 b 182 10 138 42 149 26 l 182 0 l 32 0 l 32 10 b 76 89 65 28 76 42 l 76 857 b 4 949 76 908 60 938 l 4 958 l 142 1000 l 149 992 b 138 869 140 951 138 926 l 138 89 "},"ļ":{"ha":214,"x_min":0,"x_max":0,"o":"m 138 89 b 182 10 138 42 149 26 l 182 0 l 32 0 l 32 10 b 76 89 65 28 76 42 l 76 857 b 4 949 76 908 60 938 l 4 958 l 142 1000 l 149 992 b 138 869 140 951 138 926 l 138 89 m 107 -72 l 115 -72 b 135 -158 126 -92 135 -126 b 50 -342 135 -231 103 -283 l 42 -336 b 81 -208 71 -283 81 -246 b 44 -121 81 -171 65 -144 "},"ł":{"ha":214,"x_min":0,"x_max":0,"o":"m 138 539 l 138 89 b 182 10 138 42 149 26 l 182 0 l 32 0 l 32 10 b 76 89 65 28 76 42 l 76 515 b -6 478 47 503 13 486 l -10 475 l -29 524 l -24 525 b 75 556 -1 531 46 544 l 76 556 l 76 857 b 4 949 76 908 60 938 l 4 958 l 142 1000 l 149 992 b 138 869 140 951 138 926 l 138 579 b 221 618 167 590 203 610 l 226 621 l 244 572 l 239 571 b 140 540 218 565 172 553 "},"m":{"ha":846,"x_min":0,"x_max":0,"o":"m 775 88 b 819 8 775 40 786 25 l 819 0 l 669 0 l 669 8 b 714 88 703 26 714 40 l 714 322 b 635 442 714 404 689 442 b 488 381 585 442 546 425 l 460 360 l 460 88 b 504 8 460 40 471 25 l 504 0 l 354 0 l 354 8 b 399 88 388 26 399 40 l 399 322 b 319 442 399 404 374 442 b 172 381 269 442 231 425 l 144 360 l 144 88 b 189 8 144 40 156 25 l 189 0 l 39 0 l 39 8 b 83 88 72 26 83 40 l 83 371 b 25 463 83 422 67 451 l 25 471 l 149 514 l 156 506 b 144 390 147 472 144 447 l 144 389 l 164 404 b 347 504 239 464 288 504 b 458 388 406 504 450 457 l 479 404 b 663 504 554 464 603 504 b 775 351 726 504 775 447 l 775 88 "},"n":{"ha":532,"x_min":0,"x_max":0,"o":"m 460 88 b 504 8 460 40 471 25 l 504 0 l 354 0 l 354 8 b 399 88 388 26 399 40 l 399 322 b 319 442 399 404 374 442 b 172 381 269 442 231 425 l 144 360 l 144 88 b 189 8 144 40 156 25 l 189 0 l 39 0 l 39 8 b 83 88 72 26 83 40 l 83 371 b 25 463 83 422 67 451 l 25 471 l 149 514 l 156 506 b 144 390 147 472 144 447 b 350 504 253 478 300 504 b 460 351 414 504 460 447 l 460 88 "},"ń":{"ha":532,"x_min":0,"x_max":0,"o":"m 364 747 b 169 621 317 707 253 664 l 164 628 b 324 821 246 693 285 738 l 332 821 l 364 747 m 460 88 b 504 8 460 40 471 25 l 504 0 l 354 0 l 354 8 b 399 88 388 26 399 40 l 399 322 b 319 442 399 404 374 442 b 172 381 269 442 231 425 l 144 360 l 144 88 b 189 8 144 40 156 25 l 189 0 l 39 0 l 39 8 b 83 88 72 26 83 40 l 83 371 b 25 463 83 422 67 451 l 25 471 l 149 514 l 156 506 b 144 390 147 472 144 447 b 350 504 253 478 300 504 b 460 351 414 504 460 447 l 460 88 "},"ň":{"ha":532,"x_min":0,"x_max":0,"o":"m 267 621 b 124 814 231 704 190 754 l 129 821 b 271 721 190 785 228 763 b 413 821 314 763 351 785 l 418 814 b 275 621 351 754 311 704 l 267 621 m 460 88 b 504 8 460 40 471 25 l 504 0 l 354 0 l 354 8 b 399 88 388 26 399 40 l 399 322 b 319 442 399 404 374 442 b 172 381 269 442 231 425 l 144 360 l 144 88 b 189 8 144 40 156 25 l 189 0 l 39 0 l 39 8 b 83 88 72 26 83 40 l 83 371 b 25 463 83 422 67 451 l 25 471 l 149 514 l 156 506 b 144 390 147 472 144 447 b 350 504 253 478 300 504 b 460 351 414 504 460 447 l 460 88 "},"ņ":{"ha":532,"x_min":0,"x_max":0,"o":"m 460 88 b 504 8 460 40 471 25 l 504 0 l 354 0 l 354 8 b 399 88 388 26 399 40 l 399 322 b 319 442 399 404 374 442 b 172 381 269 442 231 425 l 144 360 l 144 88 b 189 8 144 40 156 25 l 189 0 l 39 0 l 39 8 b 83 88 72 26 83 40 l 83 371 b 25 463 83 422 67 451 l 25 471 l 149 514 l 156 506 b 144 390 147 472 144 447 b 350 504 253 478 300 504 b 460 351 414 504 460 447 l 460 88 m 297 -72 b 317 -158 308 -92 317 -126 b 232 -342 317 -231 285 -283 l 224 -336 b 263 -208 253 -283 263 -246 b 226 -121 263 -171 247 -144 l 289 -72 "},"ŋ":{"ha":517,"x_min":0,"x_max":0,"o":"m 350 504 b 460 351 414 504 460 447 l 460 40 b 285 -250 460 -104 408 -207 l 281 -237 b 399 42 406 -189 400 -78 l 399 322 b 319 442 399 404 374 442 b 172 381 269 442 231 425 l 144 360 l 144 88 b 189 8 144 40 156 25 l 189 0 l 39 0 l 39 8 b 83 88 72 26 83 40 l 83 371 b 25 463 83 422 67 451 l 25 471 l 149 514 l 156 506 b 144 390 147 472 144 447 b 350 504 253 478 300 504 "},"ñ":{"ha":532,"x_min":0,"x_max":0,"o":"m 179 756 b 122 654 163 756 144 739 l 110 656 b 189 813 122 756 156 813 b 349 690 242 813 313 690 b 406 797 367 690 386 713 l 419 796 b 338 639 406 697 372 639 b 179 756 285 639 208 756 m 460 88 b 504 8 460 40 471 25 l 504 0 l 354 0 l 354 8 b 399 88 388 26 399 40 l 399 322 b 319 442 399 404 374 442 b 172 381 269 442 231 425 l 144 360 l 144 88 b 189 8 144 40 156 25 l 189 0 l 39 0 l 39 8 b 83 88 72 26 83 40 l 83 371 b 25 463 83 422 67 451 l 25 471 l 149 514 l 156 506 b 144 390 147 472 144 447 b 350 504 253 478 300 504 b 460 351 414 504 460 447 l 460 88 "},"o":{"ha":567,"x_min":0,"x_max":0,"o":"m 283 -14 b 32 243 133 -14 32 100 b 283 500 32 386 147 500 b 535 243 419 500 535 386 b 283 -14 535 100 433 -14 m 347 19 b 453 290 454 47 488 163 b 219 467 418 418 326 494 b 113 194 113 439 78 322 b 347 19 147 67 240 -8 "},"ó":{"ha":567,"x_min":0,"x_max":0,"o":"m 175 628 b 335 821 257 693 296 738 l 343 821 l 375 747 b 181 621 328 707 264 664 l 175 628 m 283 -14 b 32 243 133 -14 32 100 b 283 500 32 386 147 500 b 535 243 419 500 535 386 b 283 -14 535 100 433 -14 m 347 19 b 453 290 454 47 488 163 b 219 467 418 418 326 494 b 113 194 113 439 78 322 b 347 19 147 67 240 -8 "},"ô":{"ha":567,"x_min":0,"x_max":0,"o":"m 424 621 b 282 721 363 657 325 679 b 140 621 239 679 201 657 l 135 628 b 278 821 201 688 242 738 l 286 821 b 429 628 322 738 363 688 m 283 -14 b 32 243 133 -14 32 100 b 283 500 32 386 147 500 b 535 243 419 500 535 386 b 283 -14 535 100 433 -14 m 347 19 b 453 290 454 47 488 163 b 219 467 418 418 326 494 b 113 194 113 439 78 322 b 347 19 147 67 240 -8 "},"ö":{"ha":567,"x_min":0,"x_max":0,"o":"m 182 675 b 129 728 149 675 129 700 b 182 781 129 757 149 781 b 235 728 214 781 235 757 b 182 675 235 700 214 675 m 376 675 b 324 728 343 675 324 700 b 376 781 324 757 343 781 b 429 728 408 781 429 757 b 376 675 429 700 408 675 m 283 -14 b 32 243 133 -14 32 100 b 283 500 32 386 147 500 b 535 243 419 500 535 386 b 283 -14 535 100 433 -14 m 347 19 b 453 290 454 47 488 163 b 219 467 418 418 326 494 b 113 194 113 439 78 322 b 347 19 147 67 240 -8 "},"ò":{"ha":567,"x_min":0,"x_max":0,"o":"m 374 621 b 179 747 290 664 226 707 l 211 821 l 219 821 b 379 628 258 738 297 694 m 283 -14 b 32 243 133 -14 32 100 b 283 500 32 386 147 500 b 535 243 419 500 535 386 b 283 -14 535 100 433 -14 m 347 19 b 453 290 454 47 488 163 b 219 467 418 418 326 494 b 113 194 113 439 78 322 b 347 19 147 67 240 -8 "},"ő":{"ha":567,"x_min":0,"x_max":0,"o":"m 115 628 b 275 821 197 693 236 738 l 283 821 l 315 747 b 121 621 268 707 204 664 l 115 628 m 268 628 b 428 821 350 693 389 738 l 436 821 l 468 747 b 274 621 421 707 357 664 l 268 628 m 283 -14 b 32 243 133 -14 32 100 b 283 500 32 386 147 500 b 535 243 419 500 535 386 b 283 -14 535 100 433 -14 m 347 19 b 453 290 454 47 488 163 b 219 467 418 418 326 494 b 113 194 113 439 78 322 b 347 19 147 67 240 -8 "},"ō":{"ha":567,"x_min":0,"x_max":0,"o":"m 408 689 b 306 694 389 692 339 694 l 261 694 b 158 689 228 694 169 692 l 153 689 l 153 738 l 158 738 b 261 732 169 735 228 732 l 306 732 b 408 738 339 732 389 735 l 414 738 l 414 689 l 408 689 m 283 -14 b 32 243 133 -14 32 100 b 283 500 32 386 147 500 b 535 243 419 500 535 386 b 283 -14 535 100 433 -14 m 347 19 b 453 290 454 47 488 163 b 219 467 418 418 326 494 b 113 194 113 439 78 322 b 347 19 147 67 240 -8 "},"ø":{"ha":586,"x_min":0,"x_max":0,"o":"m 418 468 b 544 243 493 422 544 339 b 293 -17 544 100 443 -17 b 188 6 254 -17 219 -8 b 176 -42 181 -11 175 -31 l 176 -47 l 111 -47 l 111 -42 b 153 25 128 -19 140 1 b 42 243 83 71 42 151 b 293 503 42 386 157 503 b 386 485 325 503 357 496 b 407 550 396 506 406 528 l 468 550 l 468 544 b 421 472 451 526 444 519 l 418 468 m 229 467 b 122 194 122 439 88 322 b 181 79 135 149 154 110 l 365 443 b 229 467 326 469 279 479 m 357 19 b 463 290 464 47 497 163 b 394 418 449 343 425 386 l 210 50 b 357 19 251 18 303 6 "},"õ":{"ha":567,"x_min":0,"x_max":0,"o":"m 349 639 b 431 796 383 639 417 697 l 417 797 b 360 690 397 713 378 690 b 200 813 324 690 253 813 b 121 656 167 813 133 756 l 133 654 b 190 756 156 739 174 756 b 349 639 219 756 296 639 m 283 -14 b 32 243 133 -14 32 100 b 283 500 32 386 147 500 b 535 243 419 500 535 386 b 283 -14 535 100 433 -14 m 347 19 b 453 290 454 47 488 163 b 219 467 418 418 326 494 b 113 194 113 439 78 322 b 347 19 147 67 240 -8 "},"œ":{"ha":858,"x_min":0,"x_max":0,"o":"m 836 94 b 622 -12 765 26 710 -12 b 443 97 546 -12 479 25 b 256 -17 413 26 351 -17 b 32 243 106 -17 32 89 b 256 503 32 397 122 503 b 440 364 350 503 410 450 b 632 504 475 449 544 504 b 772 451 692 504 743 483 b 819 321 811 410 819 375 l 472 307 b 469 265 471 294 469 281 b 650 40 469 126 553 40 b 825 106 719 40 772 61 m 321 21 b 399 283 418 46 436 146 b 190 467 361 421 289 493 b 111 201 93 442 75 339 b 321 21 149 64 222 -6 m 625 469 b 475 331 558 469 494 428 l 742 354 b 625 469 740 429 697 469 "},"p":{"ha":575,"x_min":0,"x_max":0,"o":"m 343 504 b 540 267 458 504 540 422 b 299 -12 540 124 450 -12 b 140 38 242 -12 188 3 l 140 -329 b 185 -408 140 -376 151 -392 l 185 -417 l 35 -417 l 35 -408 b 79 -329 68 -390 79 -376 l 79 371 b 21 463 79 422 63 451 l 21 472 l 144 514 l 151 506 b 140 415 144 478 142 456 b 343 504 200 469 272 504 m 303 25 b 486 236 407 25 486 92 b 306 453 486 374 404 453 b 140 386 243 453 186 429 l 140 139 b 303 25 140 57 239 25 "},"þ":{"ha":617,"x_min":0,"x_max":0,"o":"m 364 504 b 561 267 479 504 561 422 b 319 -12 561 124 471 -12 b 161 38 263 -12 208 3 l 161 -329 b 206 -408 161 -376 172 -392 l 206 -417 l 56 -417 l 56 -408 b 100 -329 89 -390 100 -376 l 100 857 b 28 949 100 908 83 938 l 28 958 l 165 1000 l 172 992 b 161 869 164 951 161 926 l 161 415 b 364 504 221 469 293 504 m 324 25 b 507 236 428 25 507 92 b 326 453 507 374 425 453 b 161 386 264 453 207 429 l 161 139 b 324 25 161 57 260 25 "},"q":{"ha":571,"x_min":0,"x_max":0,"o":"m 496 -329 b 540 -408 496 -376 507 -390 l 540 -417 l 390 -417 l 390 -408 b 435 -329 424 -392 435 -376 l 435 76 b 232 -12 375 22 303 -12 b 35 225 117 -12 35 69 b 276 504 35 368 125 504 b 433 456 381 504 418 456 b 510 528 447 456 471 476 l 521 521 b 496 371 500 472 496 435 l 496 -329 m 269 39 b 435 106 332 39 389 63 l 435 353 b 272 467 435 435 336 467 b 89 256 168 467 89 400 b 269 39 89 118 165 39 "},"r":{"ha":397,"x_min":0,"x_max":0,"o":"m 338 504 b 383 497 353 504 364 503 l 365 425 l 356 425 b 286 447 335 440 317 447 b 142 257 224 447 142 372 l 142 124 b 186 10 142 56 153 26 l 186 0 l 36 0 l 36 10 b 81 124 69 28 81 56 l 81 390 b 36 476 81 454 69 468 l 36 486 l 149 514 l 156 506 b 142 390 144 472 142 447 l 142 379 b 338 504 204 463 257 504 "},"ŕ":{"ha":397,"x_min":0,"x_max":0,"o":"m 290 747 b 96 621 243 707 179 664 l 90 628 b 250 821 172 693 211 738 l 258 821 l 290 747 m 338 504 b 383 497 353 504 364 503 l 365 425 l 356 425 b 286 447 335 440 317 447 b 142 257 224 447 142 372 l 142 124 b 186 10 142 56 153 26 l 186 0 l 36 0 l 36 10 b 81 124 69 28 81 56 l 81 390 b 36 476 81 454 69 468 l 36 486 l 149 514 l 156 506 b 142 390 144 472 142 447 l 142 379 b 338 504 204 463 257 504 "},"ř":{"ha":397,"x_min":0,"x_max":0,"o":"m 193 621 b 50 814 157 704 117 754 l 56 821 b 197 721 117 785 154 763 b 339 821 240 763 278 785 l 344 814 b 201 621 278 754 238 704 l 193 621 m 338 504 b 383 497 353 504 364 503 l 365 425 l 356 425 b 286 447 335 440 317 447 b 142 257 224 447 142 372 l 142 124 b 186 10 142 56 153 26 l 186 0 l 36 0 l 36 10 b 81 124 69 28 81 56 l 81 390 b 36 476 81 454 69 468 l 36 486 l 149 514 l 156 506 b 142 390 144 472 142 447 l 142 379 b 338 504 204 463 257 504 "},"ŗ":{"ha":397,"x_min":0,"x_max":0,"o":"m 338 504 b 383 497 353 504 364 503 l 365 425 l 356 425 b 286 447 335 440 317 447 b 142 257 224 447 142 372 l 142 124 b 186 10 142 56 153 26 l 186 0 l 36 0 l 36 10 b 81 124 69 28 81 56 l 81 390 b 36 476 81 454 69 468 l 36 486 l 149 514 l 156 506 b 142 390 144 472 142 447 l 142 379 b 338 504 204 463 257 504 m 139 -72 b 158 -158 150 -92 158 -126 b 74 -342 158 -231 126 -283 l 65 -336 b 104 -208 94 -283 104 -246 b 68 -121 104 -171 89 -144 l 131 -72 "},"s":{"ha":403,"x_min":0,"x_max":0,"o":"m 214 504 b 364 467 267 504 319 490 l 346 396 l 338 396 b 188 472 300 449 250 472 b 83 381 126 472 83 438 b 367 129 83 246 367 301 b 206 -19 367 26 283 -19 b 63 4 168 -19 113 -11 l 44 114 l 54 117 b 215 11 89 51 136 11 b 322 107 278 11 322 43 b 39 367 322 233 36 176 b 214 504 40 456 114 504 "},"ś":{"ha":403,"x_min":0,"x_max":0,"o":"m 81 628 b 240 821 163 693 201 738 l 249 821 l 281 747 b 86 621 233 707 169 664 l 81 628 m 214 504 b 364 467 267 504 319 490 l 346 396 l 338 396 b 188 472 300 449 250 472 b 83 381 126 472 83 438 b 367 129 83 246 367 301 b 206 -19 367 26 283 -19 b 63 4 168 -19 113 -11 l 44 114 l 54 117 b 215 11 89 51 136 11 b 322 107 278 11 322 43 b 39 367 322 233 36 176 b 214 504 40 456 114 504 "},"š":{"ha":403,"x_min":0,"x_max":0,"o":"m 335 814 b 192 621 268 754 228 704 l 183 621 b 40 814 147 704 107 754 l 46 821 b 188 721 107 785 144 763 b 329 821 231 763 268 785 l 335 814 m 214 504 b 364 467 267 504 319 490 l 346 396 l 338 396 b 188 472 300 449 250 472 b 83 381 126 472 83 438 b 367 129 83 246 367 301 b 206 -19 367 26 283 -19 b 63 4 168 -19 113 -11 l 44 114 l 54 117 b 215 11 89 51 136 11 b 322 107 278 11 322 43 b 39 367 322 233 36 176 b 214 504 40 456 114 504 "},"ş":{"ha":403,"x_min":0,"x_max":0,"o":"m 254 -57 b 335 -133 297 -57 335 -85 b 206 -247 335 -207 274 -247 b 92 -210 160 -247 118 -229 l 97 -201 b 203 -229 131 -218 161 -229 b 289 -146 253 -229 289 -193 b 226 -89 289 -114 261 -89 b 153 -114 200 -89 174 -100 l 147 -108 l 196 -19 b 63 4 158 -18 108 -10 l 44 114 l 54 117 b 215 11 89 51 136 11 b 322 107 278 11 322 43 b 39 367 322 233 36 176 b 214 504 40 456 114 504 b 364 467 267 504 319 490 l 346 396 l 338 396 b 188 472 300 449 250 472 b 83 381 126 472 83 438 b 367 129 83 246 367 301 b 213 -19 367 29 288 -17 l 196 -75 b 254 -57 211 -64 229 -57 "},"ș":{"ha":403,"x_min":0,"x_max":0,"o":"m 214 504 b 364 467 267 504 319 490 l 346 396 l 338 396 b 188 472 300 449 250 472 b 83 381 126 472 83 438 b 367 129 83 246 367 301 b 206 -19 367 26 283 -19 b 63 4 168 -19 113 -11 l 44 114 l 54 117 b 215 11 89 51 136 11 b 322 107 278 11 322 43 b 39 367 322 233 36 176 b 214 504 40 456 114 504 m 228 -72 l 236 -72 b 256 -158 247 -92 256 -126 b 171 -342 256 -231 224 -283 l 163 -336 b 201 -208 192 -283 201 -246 b 165 -121 201 -171 186 -144 "},"ß":{"ha":743,"x_min":0,"x_max":0,"o":"m 333 553 b 701 256 574 517 701 443 b 435 -19 701 93 597 -19 b 265 3 390 -19 338 -11 l 218 136 l 228 138 b 454 17 268 65 368 17 b 639 218 588 17 639 111 b 285 517 639 400 539 489 l 285 524 l 514 942 l 169 942 l 169 126 b 214 10 169 57 181 26 l 214 0 l 57 0 l 57 10 b 101 124 90 28 101 56 l 101 849 b 57 963 101 917 90 944 l 57 972 l 640 972 l 640 963 b 536 865 601 949 567 913 l 333 553 "},"t":{"ha":360,"x_min":0,"x_max":0,"o":"m 342 57 b 172 -18 275 8 231 -18 b 81 107 117 -18 81 25 l 81 446 l 14 446 l 14 456 l 131 599 l 142 599 l 142 486 l 328 486 l 328 446 l 142 446 l 142 136 b 206 39 142 68 157 39 b 335 68 240 39 282 47 l 342 57 "},"ŧ":{"ha":360,"x_min":0,"x_max":0,"o":"m 342 57 b 172 -18 275 8 231 -18 b 81 107 117 -18 81 25 l 81 235 b 19 229 57 233 33 231 l 14 229 l 14 281 l 19 281 b 81 275 33 279 57 276 l 81 446 l 14 446 l 14 456 l 131 599 l 142 599 l 142 486 l 328 486 l 328 446 l 142 446 l 142 274 l 167 274 b 269 281 200 274 247 278 l 275 281 l 275 229 l 269 229 b 167 236 247 232 200 236 l 142 236 l 142 136 b 206 39 142 68 157 39 b 335 68 240 39 282 47 "},"ť":{"ha":360,"x_min":0,"x_max":0,"o":"m 281 814 b 138 621 214 754 174 704 l 129 621 b -14 814 93 704 53 754 l -8 821 b 133 721 53 785 90 763 b 275 821 176 763 214 785 l 281 814 m 342 57 b 172 -18 275 8 231 -18 b 81 107 117 -18 81 25 l 81 446 l 14 446 l 14 456 l 131 599 l 142 599 l 142 486 l 328 486 l 328 446 l 142 446 l 142 136 b 206 39 142 68 157 39 b 335 68 240 39 282 47 l 342 57 "},"ţ":{"ha":360,"x_min":0,"x_max":0,"o":"m 221 -57 b 301 -133 264 -57 301 -85 b 172 -247 301 -207 240 -247 b 58 -210 126 -247 85 -229 l 64 -201 b 169 -229 97 -218 128 -229 b 256 -146 219 -229 256 -193 b 193 -89 256 -114 228 -89 b 119 -114 167 -89 140 -100 l 114 -108 l 163 -18 b 81 107 113 -12 81 29 l 81 446 l 14 446 l 14 456 l 131 599 l 142 599 l 142 486 l 328 486 l 328 446 l 142 446 l 142 136 b 206 39 142 68 157 39 b 335 68 240 39 282 47 l 342 57 b 179 -18 278 10 233 -17 l 163 -75 b 221 -57 178 -64 196 -57 "},"ț":{"ha":360,"x_min":0,"x_max":0,"o":"m 342 57 b 172 -18 275 8 231 -18 b 81 107 117 -18 81 25 l 81 446 l 14 446 l 14 456 l 131 599 l 142 599 l 142 486 l 328 486 l 328 446 l 142 446 l 142 136 b 206 39 142 68 157 39 b 335 68 240 39 282 47 l 342 57 m 194 -72 l 203 -72 b 222 -158 214 -92 222 -126 b 138 -342 222 -231 190 -283 l 129 -336 b 168 -208 158 -283 168 -246 b 132 -121 168 -171 153 -144 "},"u":{"ha":525,"x_min":0,"x_max":0,"o":"m 447 115 b 506 24 447 64 464 35 l 506 15 l 382 -28 l 375 -19 b 386 96 383 14 386 39 b 181 -18 278 8 231 -18 b 71 135 117 -18 71 39 l 71 399 b 26 478 71 446 60 461 l 26 486 l 132 486 l 132 164 b 211 44 132 82 157 44 b 358 106 261 44 300 61 l 386 126 l 386 399 b 328 478 386 447 375 463 l 328 486 l 447 486 l 447 115 "},"ú":{"ha":525,"x_min":0,"x_max":0,"o":"m 335 747 b 140 621 288 707 224 664 l 135 628 b 294 821 217 693 256 738 l 303 821 l 335 747 m 447 115 b 506 24 447 64 464 35 l 506 15 l 382 -28 l 375 -19 b 386 96 383 14 386 39 b 181 -18 278 8 231 -18 b 71 135 117 -18 71 39 l 71 399 b 26 478 71 446 60 461 l 26 486 l 132 486 l 132 164 b 211 44 132 82 157 44 b 358 106 261 44 300 61 l 386 126 l 386 399 b 328 478 386 447 375 463 l 328 486 l 447 486 l 447 115 "},"û":{"ha":525,"x_min":0,"x_max":0,"o":"m 242 721 b 100 621 199 679 161 657 l 94 628 b 238 821 161 688 201 738 l 246 821 b 389 628 282 738 322 688 l 383 621 b 242 721 322 657 285 679 m 447 115 b 506 24 447 64 464 35 l 506 15 l 382 -28 l 375 -19 b 386 96 383 14 386 39 b 181 -18 278 8 231 -18 b 71 135 117 -18 71 39 l 71 399 b 26 478 71 446 60 461 l 26 486 l 132 486 l 132 164 b 211 44 132 82 157 44 b 358 106 261 44 300 61 l 386 126 l 386 399 b 328 478 386 447 375 463 l 328 486 l 447 486 l 447 115 "},"ü":{"ha":525,"x_min":0,"x_max":0,"o":"m 142 675 b 89 728 108 675 89 700 b 142 781 89 757 108 781 b 194 728 174 781 194 757 b 142 675 194 700 174 675 m 336 675 b 283 728 303 675 283 700 b 336 781 283 757 303 781 b 389 728 368 781 389 757 b 336 675 389 700 368 675 m 447 115 b 506 24 447 64 464 35 l 506 15 l 382 -28 l 375 -19 b 386 96 383 14 386 39 b 181 -18 278 8 231 -18 b 71 135 117 -18 71 39 l 71 399 b 26 478 71 446 60 461 l 26 486 l 132 486 l 132 164 b 211 44 132 82 157 44 b 358 106 261 44 300 61 l 386 126 l 386 399 b 328 478 386 447 375 463 l 328 486 l 447 486 l 447 115 "},"ù":{"ha":525,"x_min":0,"x_max":0,"o":"m 333 621 b 139 747 250 664 186 707 l 171 821 l 179 821 b 339 628 218 738 257 694 m 447 115 b 506 24 447 64 464 35 l 506 15 l 382 -28 l 375 -19 b 386 96 383 14 386 39 b 181 -18 278 8 231 -18 b 71 135 117 -18 71 39 l 71 399 b 26 478 71 446 60 461 l 26 486 l 132 486 l 132 164 b 211 44 132 82 157 44 b 358 106 261 44 300 61 l 386 126 l 386 399 b 328 478 386 447 375 463 l 328 486 l 447 486 l 447 115 "},"ű":{"ha":525,"x_min":0,"x_max":0,"o":"m 275 747 b 81 621 228 707 164 664 l 75 628 b 235 821 157 693 196 738 l 243 821 l 275 747 m 228 628 b 388 821 310 693 349 738 l 396 821 l 428 747 b 233 621 381 707 317 664 m 447 115 b 506 24 447 64 464 35 l 506 15 l 382 -28 l 375 -19 b 386 96 383 14 386 39 b 181 -18 278 8 231 -18 b 71 135 117 -18 71 39 l 71 399 b 26 478 71 446 60 461 l 26 486 l 132 486 l 132 164 b 211 44 132 82 157 44 b 358 106 261 44 300 61 l 386 126 l 386 399 b 328 478 386 447 375 463 l 328 486 l 447 486 l 447 115 "},"ū":{"ha":525,"x_min":0,"x_max":0,"o":"m 221 694 b 118 689 188 694 129 692 l 113 689 l 113 738 l 118 738 b 221 732 129 735 188 732 l 265 732 b 368 738 299 732 349 735 l 374 738 l 374 689 l 368 689 b 265 694 349 692 299 694 l 221 694 m 447 115 b 506 24 447 64 464 35 l 506 15 l 382 -28 l 375 -19 b 386 96 383 14 386 39 b 181 -18 278 8 231 -18 b 71 135 117 -18 71 39 l 71 399 b 26 478 71 446 60 461 l 26 486 l 132 486 l 132 164 b 211 44 132 82 157 44 b 358 106 261 44 300 61 l 386 126 l 386 399 b 328 478 386 447 375 463 l 328 486 l 447 486 l 447 115 "},"ų":{"ha":525,"x_min":0,"x_max":0,"o":"m 538 -210 b 424 -247 511 -229 469 -247 b 294 -133 356 -247 294 -207 b 375 -57 294 -85 332 -57 b 433 -75 400 -57 418 -64 l 417 -15 l 382 -28 l 375 -19 b 386 96 383 14 386 39 b 181 -18 278 8 231 -18 b 71 135 117 -18 71 39 l 71 399 b 26 478 71 446 60 461 l 26 486 l 132 486 l 132 164 b 211 44 132 82 157 44 b 358 106 261 44 300 61 l 386 126 l 386 399 b 328 478 386 447 375 463 l 328 486 l 447 486 l 447 115 b 506 24 447 64 464 35 l 506 15 l 429 -11 l 482 -108 l 476 -114 b 403 -89 456 -100 429 -89 b 340 -146 368 -89 340 -114 b 426 -229 340 -193 376 -229 b 532 -201 468 -229 499 -218 "},"ů":{"ha":525,"x_min":0,"x_max":0,"o":"m 239 603 b 122 719 165 603 122 654 b 239 835 122 783 165 835 b 354 719 311 835 354 783 b 239 603 354 654 311 603 m 239 810 b 164 719 192 810 164 769 b 239 628 164 668 192 628 b 313 719 285 628 313 668 b 239 810 313 769 285 810 m 447 115 b 506 24 447 64 464 35 l 506 15 l 382 -28 l 375 -19 b 386 96 383 14 386 39 b 181 -18 278 8 231 -18 b 71 135 117 -18 71 39 l 71 399 b 26 478 71 446 60 461 l 26 486 l 132 486 l 132 164 b 211 44 132 82 157 44 b 358 106 261 44 300 61 l 386 126 l 386 399 b 328 478 386 447 375 463 l 328 486 l 447 486 l 447 115 "},"v":{"ha":540,"x_min":0,"x_max":0,"o":"m 532 486 l 532 478 b 442 357 496 457 467 414 l 276 -18 l 268 -18 l 103 354 b 8 478 76 413 56 457 l 8 486 l 168 486 l 168 478 b 169 357 131 458 139 429 l 290 71 l 407 358 b 401 478 433 425 443 457 l 401 486 "},"w":{"ha":738,"x_min":0,"x_max":0,"o":"m 729 486 l 729 478 b 639 357 693 457 664 414 l 474 -18 l 465 -18 l 371 196 l 276 -18 l 268 -18 l 103 354 b 8 478 76 413 56 457 l 8 486 l 168 486 l 168 478 b 169 357 131 458 139 429 l 290 71 l 356 229 l 300 354 b 206 478 274 413 253 457 l 206 486 l 344 486 l 344 478 b 367 357 328 458 336 429 l 388 308 l 407 358 b 422 478 433 425 443 457 l 422 486 l 532 486 l 532 478 b 442 357 496 457 467 414 l 403 271 l 488 71 l 604 358 b 599 478 631 425 640 457 l 599 486 "},"ẃ":{"ha":738,"x_min":0,"x_max":0,"o":"m 467 747 b 272 621 419 707 356 664 l 267 628 b 426 821 349 693 388 738 l 435 821 l 467 747 m 729 486 l 729 478 b 639 357 693 457 664 414 l 474 -18 l 465 -18 l 371 196 l 276 -18 l 268 -18 l 103 354 b 8 478 76 413 56 457 l 8 486 l 168 486 l 168 478 b 169 357 131 458 139 429 l 290 71 l 356 229 l 300 354 b 206 478 274 413 253 457 l 206 486 l 344 486 l 344 478 b 367 357 328 458 336 429 l 388 308 l 407 358 b 422 478 433 425 443 457 l 422 486 l 532 486 l 532 478 b 442 357 496 457 467 414 l 403 271 l 488 71 l 604 358 b 599 478 631 425 640 457 l 599 486 "},"ŵ":{"ha":738,"x_min":0,"x_max":0,"o":"m 374 721 b 232 621 331 679 293 657 l 226 628 b 369 821 293 688 333 738 l 378 821 b 521 628 414 738 454 688 l 515 621 b 374 721 454 657 417 679 m 729 486 l 729 478 b 639 357 693 457 664 414 l 474 -18 l 465 -18 l 371 196 l 276 -18 l 268 -18 l 103 354 b 8 478 76 413 56 457 l 8 486 l 168 486 l 168 478 b 169 357 131 458 139 429 l 290 71 l 356 229 l 300 354 b 206 478 274 413 253 457 l 206 486 l 344 486 l 344 478 b 367 357 328 458 336 429 l 388 308 l 407 358 b 422 478 433 425 443 457 l 422 486 l 532 486 l 532 478 b 442 357 496 457 467 414 l 403 271 l 488 71 l 604 358 b 599 478 631 425 640 457 l 599 486 "},"ẅ":{"ha":738,"x_min":0,"x_max":0,"o":"m 274 675 b 221 728 240 675 221 700 b 274 781 221 757 240 781 b 326 728 306 781 326 757 b 274 675 326 700 306 675 m 468 675 b 415 728 435 675 415 700 b 468 781 415 757 435 781 b 521 728 500 781 521 757 b 468 675 521 700 500 675 m 729 486 l 729 478 b 639 357 693 457 664 414 l 474 -18 l 465 -18 l 371 196 l 276 -18 l 268 -18 l 103 354 b 8 478 76 413 56 457 l 8 486 l 168 486 l 168 478 b 169 357 131 458 139 429 l 290 71 l 356 229 l 300 354 b 206 478 274 413 253 457 l 206 486 l 344 486 l 344 478 b 367 357 328 458 336 429 l 388 308 l 407 358 b 422 478 433 425 443 457 l 422 486 l 532 486 l 532 478 b 442 357 496 457 467 414 l 403 271 l 488 71 l 604 358 b 599 478 631 425 640 457 l 599 486 "},"ẁ":{"ha":738,"x_min":0,"x_max":0,"o":"m 465 621 b 271 747 382 664 318 707 l 303 821 l 311 821 b 471 628 350 738 389 694 m 729 486 l 729 478 b 639 357 693 457 664 414 l 474 -18 l 465 -18 l 371 196 l 276 -18 l 268 -18 l 103 354 b 8 478 76 413 56 457 l 8 486 l 168 486 l 168 478 b 169 357 131 458 139 429 l 290 71 l 356 229 l 300 354 b 206 478 274 413 253 457 l 206 486 l 344 486 l 344 478 b 367 357 328 458 336 429 l 388 308 l 407 358 b 422 478 433 425 443 457 l 422 486 l 532 486 l 532 478 b 442 357 496 457 467 414 l 403 271 l 488 71 l 604 358 b 599 478 631 425 640 457 l 599 486 "},"x":{"ha":529,"x_min":0,"x_max":0,"o":"m 403 110 b 517 10 428 76 476 31 l 517 1 l 365 1 l 365 10 b 344 88 403 29 378 43 l 247 215 l 154 93 b 150 10 124 53 108 31 l 150 1 l 22 1 l 22 10 b 122 104 56 31 93 69 l 232 235 l 128 369 b 17 478 96 411 61 457 l 17 486 l 172 486 l 172 478 b 186 392 135 458 146 444 l 269 283 l 346 388 b 356 478 379 433 397 457 l 356 486 l 483 486 l 483 478 b 375 375 450 457 408 415 l 285 264 l 403 110 "},"y":{"ha":540,"x_min":0,"x_max":0,"o":"m 532 486 l 532 478 b 442 357 496 457 467 414 l 300 35 l 283 -1 l 276 -18 l 243 -92 b 0 -311 179 -233 114 -311 b -175 -271 -64 -311 -118 -293 l -161 -192 l -153 -192 b 6 -275 -103 -254 -54 -275 b 208 -99 72 -275 133 -251 l 258 4 l 103 354 b 8 478 76 413 56 457 l 8 486 l 168 486 l 168 478 b 169 357 131 458 139 429 l 290 71 l 407 358 b 401 478 433 425 443 457 l 401 486 "},"ý":{"ha":540,"x_min":0,"x_max":0,"o":"m 368 747 b 174 621 321 707 257 664 l 168 628 b 328 821 250 693 289 738 l 336 821 l 368 747 m 532 486 l 532 478 b 442 357 496 457 467 414 l 300 35 l 283 -1 l 276 -18 l 243 -92 b 0 -311 179 -233 114 -311 b -175 -271 -64 -311 -118 -293 l -161 -192 l -153 -192 b 6 -275 -103 -254 -54 -275 b 208 -99 72 -275 133 -251 l 258 4 l 103 354 b 8 478 76 413 56 457 l 8 486 l 168 486 l 168 478 b 169 357 131 458 139 429 l 290 71 l 407 358 b 401 478 433 425 443 457 l 401 486 "},"ŷ":{"ha":540,"x_min":0,"x_max":0,"o":"m 275 721 b 133 621 232 679 194 657 l 128 628 b 271 821 194 688 235 738 l 279 821 b 422 628 315 738 356 688 l 417 621 b 275 721 356 657 318 679 m 532 486 l 532 478 b 442 357 496 457 467 414 l 300 35 l 283 -1 l 276 -18 l 243 -92 b 0 -311 179 -233 114 -311 b -175 -271 -64 -311 -118 -293 l -161 -192 l -153 -192 b 6 -275 -103 -254 -54 -275 b 208 -99 72 -275 133 -251 l 258 4 l 103 354 b 8 478 76 413 56 457 l 8 486 l 168 486 l 168 478 b 169 357 131 458 139 429 l 290 71 l 407 358 b 401 478 433 425 443 457 l 401 486 "},"ÿ":{"ha":540,"x_min":0,"x_max":0,"o":"m 175 675 b 122 728 142 675 122 700 b 175 781 122 757 142 781 b 228 728 207 781 228 757 b 175 675 228 700 207 675 m 369 675 b 317 728 336 675 317 700 b 369 781 317 757 336 781 b 422 728 401 781 422 757 b 369 675 422 700 401 675 m 532 486 l 532 478 b 442 357 496 457 467 414 l 300 35 l 283 -1 l 276 -18 l 243 -92 b 0 -311 179 -233 114 -311 b -175 -271 -64 -311 -118 -293 l -161 -192 l -153 -192 b 6 -275 -103 -254 -54 -275 b 208 -99 72 -275 133 -251 l 258 4 l 103 354 b 8 478 76 413 56 457 l 8 486 l 168 486 l 168 478 b 169 357 131 458 139 429 l 290 71 l 407 358 b 401 478 433 425 443 457 l 401 486 "},"ỳ":{"ha":540,"x_min":0,"x_max":0,"o":"m 367 621 b 172 747 283 664 219 707 l 204 821 l 213 821 b 372 628 251 738 290 694 m 532 486 l 532 478 b 442 357 496 457 467 414 l 300 35 l 283 -1 l 276 -18 l 243 -92 b 0 -311 179 -233 114 -311 b -175 -271 -64 -311 -118 -293 l -161 -192 l -153 -192 b 6 -275 -103 -254 -54 -275 b 208 -99 72 -275 133 -251 l 258 4 l 103 354 b 8 478 76 413 56 457 l 8 486 l 168 486 l 168 478 b 169 357 131 458 139 429 l 290 71 l 407 358 b 401 478 433 425 443 457 l 401 486 "},"z":{"ha":479,"x_min":0,"x_max":0,"o":"m 456 478 b 354 363 411 444 383 408 l 143 29 l 235 29 b 449 101 356 29 411 47 l 456 97 l 414 0 l 24 0 l 24 8 b 157 163 78 51 108 86 l 343 457 l 179 457 b 54 413 115 457 85 444 l 46 413 l 24 486 l 456 486 l 456 478 "},"ź":{"ha":479,"x_min":0,"x_max":0,"o":"m 329 747 b 135 621 282 707 218 664 l 129 628 b 289 821 211 693 250 738 l 297 821 l 329 747 m 456 478 b 354 363 411 444 383 408 l 143 29 l 235 29 b 449 101 356 29 411 47 l 456 97 l 414 0 l 24 0 l 24 8 b 157 163 78 51 108 86 l 343 457 l 179 457 b 54 413 115 457 85 444 l 46 413 l 24 486 l 456 486 l 456 478 "},"ž":{"ha":479,"x_min":0,"x_max":0,"o":"m 232 621 b 89 814 196 704 156 754 l 94 821 b 236 721 156 785 193 763 b 378 821 279 763 317 785 l 383 814 b 240 621 317 754 276 704 l 232 621 m 456 478 b 354 363 411 444 383 408 l 143 29 l 235 29 b 449 101 356 29 411 47 l 456 97 l 414 0 l 24 0 l 24 8 b 157 163 78 51 108 86 l 343 457 l 179 457 b 54 413 115 457 85 444 l 46 413 l 24 486 l 456 486 l 456 478 "},"ż":{"ha":479,"x_min":0,"x_max":0,"o":"m 236 675 b 183 728 203 675 183 700 b 236 781 183 757 203 781 b 289 728 268 781 289 757 b 236 675 289 700 268 675 m 456 478 b 354 363 411 444 383 408 l 143 29 l 235 29 b 449 101 356 29 411 47 l 456 97 l 414 0 l 24 0 l 24 8 b 157 163 78 51 108 86 l 343 457 l 179 457 b 54 413 115 457 85 444 l 46 413 l 24 486 l 456 486 l 456 478 "},"⁄":{"ha":833,"x_min":0,"x_max":0,"o":""},".":{"ha":253,"x_min":0,"x_max":0,"o":"m 126 -14 b 69 43 94 -14 69 13 b 126 100 69 75 94 100 b 183 43 157 100 183 75 b 126 -14 183 13 157 -14 "},",":{"ha":232,"x_min":0,"x_max":0,"o":"m 135 100 l 143 100 b 163 14 154 81 163 46 b 78 -169 163 -58 131 -111 l 69 -164 b 108 -36 99 -111 108 -74 b 72 51 108 1 93 28 "},":":{"ha":253,"x_min":0,"x_max":0,"o":"m 126 390 b 69 447 94 390 69 417 b 126 504 69 479 94 504 b 183 447 157 504 183 479 b 126 390 183 417 157 390 m 126 -14 b 69 43 94 -14 69 13 b 126 100 69 75 94 100 b 183 43 157 100 183 75 b 126 -14 183 13 157 -14 "},";":{"ha":254,"x_min":0,"x_max":0,"o":"m 126 390 b 69 447 94 390 69 417 b 126 504 69 479 94 504 b 183 447 157 504 183 479 b 126 390 183 417 157 390 m 157 100 l 165 100 b 185 14 176 81 185 46 b 100 -169 185 -58 153 -111 l 92 -164 b 131 -36 121 -111 131 -74 b 94 51 131 1 115 28 "},"…":{"ha":833,"x_min":0,"x_max":0,"o":"m 126 100 b 183 43 157 100 183 75 b 126 -14 183 13 157 -14 b 69 43 94 -14 69 13 b 126 100 69 75 94 100 "},"!":{"ha":164,"x_min":0,"x_max":0,"o":"m 67 165 l 43 958 l 113 992 l 119 992 l 96 165 m 81 -14 b 24 43 49 -14 24 13 b 81 100 24 75 49 100 b 138 43 111 100 138 75 b 81 -14 138 13 111 -14 "},"¡":{"ha":164,"x_min":0,"x_max":0,"o":"m 81 506 b 138 449 113 506 138 479 b 81 392 138 417 113 392 b 24 449 50 392 24 417 b 81 506 24 479 50 506 m 94 326 l 118 -467 l 49 -500 l 42 -500 l 65 326 "},"?":{"ha":571,"x_min":0,"x_max":0,"o":"m 431 794 b 267 969 431 908 376 969 b 75 863 183 969 114 919 l 68 863 l 29 944 b 256 997 90 969 174 997 b 506 790 408 997 506 933 b 269 165 506 578 292 528 l 240 165 b 431 794 240 539 431 588 m 257 100 b 314 43 288 100 314 75 b 257 -14 314 13 288 -14 b 200 43 225 -14 200 13 b 257 100 200 75 225 100 "},"¿":{"ha":571,"x_min":0,"x_max":0,"o":"m 314 393 b 257 450 283 393 257 418 b 314 507 257 481 283 507 b 371 450 346 507 371 481 b 314 393 371 418 346 393 m 140 -301 b 304 -476 140 -415 194 -476 b 496 -369 388 -476 457 -426 l 503 -369 l 542 -451 b 315 -504 481 -476 397 -504 b 65 -297 163 -504 65 -440 b 301 328 65 -85 279 -35 l 331 328 b 140 -301 331 -46 140 -94 "},"·":{"ha":514,"x_min":0,"x_max":0,"o":"m 257 308 b 314 251 288 308 314 283 b 257 194 314 221 288 194 b 200 251 225 194 200 221 b 257 308 200 283 225 308 "},"•":{"ha":517,"x_min":0,"x_max":0,"o":"m 258 378 b 385 251 325 378 385 322 b 258 126 385 185 325 126 b 133 251 188 126 133 185 b 258 378 133 322 188 378 "},"*":{"ha":431,"x_min":0,"x_max":0,"o":"m 292 753 b 385 706 321 735 364 715 l 389 704 l 364 658 l 358 663 b 274 718 340 676 303 700 l 232 746 l 235 696 b 240 594 238 663 238 617 l 242 588 l 189 588 l 190 592 b 196 697 193 615 194 663 l 199 746 l 157 719 b 72 661 128 703 90 675 l 67 658 l 42 704 l 46 707 b 139 751 67 715 108 736 l 185 774 l 139 796 b 46 843 110 814 67 833 l 42 844 l 67 890 l 72 886 b 157 831 90 872 128 849 l 199 801 l 196 853 b 190 954 196 886 193 932 l 189 961 l 242 961 l 240 957 b 235 851 238 933 236 886 l 231 800 l 274 829 b 358 888 303 846 340 874 l 364 890 l 389 844 l 385 842 b 292 797 364 833 322 813 l 246 774 l 292 753 "},"#":{"ha":783,"x_min":0,"x_max":0,"o":"m 742 600 l 742 549 l 736 549 b 633 556 714 551 667 556 l 540 556 l 497 399 l 583 399 b 686 406 617 399 664 403 l 692 406 l 692 354 l 686 354 b 583 361 664 357 617 361 l 488 361 l 410 82 b 400 6 401 50 397 21 l 400 0 l 335 0 l 335 6 b 371 86 354 25 360 44 l 447 361 l 279 361 l 201 82 b 192 6 193 50 189 21 l 192 0 l 126 0 l 126 6 b 163 86 146 25 151 44 l 239 361 l 150 361 b 47 354 117 361 69 357 l 42 354 l 42 406 l 47 406 b 150 399 69 403 117 399 l 250 399 l 293 556 l 200 556 b 97 549 167 556 119 551 l 92 549 l 92 600 l 97 600 b 200 593 119 597 167 593 l 304 593 l 390 904 b 399 972 397 928 399 950 l 460 972 l 460 967 b 426 894 443 949 438 936 l 343 593 l 513 593 l 599 904 b 607 972 606 928 607 950 l 668 972 l 668 967 b 635 894 651 949 646 936 l 551 593 l 633 593 b 736 600 667 593 714 597 m 501 556 l 332 556 l 289 399 l 458 399 "},"/":{"ha":710,"x_min":0,"x_max":0,"o":"m 69 -28 b 118 53 90 -1 104 25 l 575 940 b 597 1008 586 963 596 986 l 658 1008 l 658 1003 b 611 931 642 985 635 978 l 154 36 b 135 -28 144 18 132 -12 l 135 -33 l 69 -33 "},"\\":{"ha":593,"x_min":0,"x_max":0,"o":"m 590 -33 l 525 -33 l 525 -28 b 506 36 528 -12 515 18 l 49 931 b 1 1003 25 978 18 985 l 1 1008 l 63 1008 b 85 940 64 986 74 963 l 542 53 b 590 -28 556 25 569 -1 "},"(":{"ha":456,"x_min":0,"x_max":0,"o":"m 344 1122 b 132 510 258 1032 132 806 b 344 -99 132 214 261 -7 l 339 -106 b 82 510 225 -37 82 193 b 340 1126 82 826 228 1058 "},")":{"ha":456,"x_min":0,"x_max":0,"o":"m 104 1126 b 363 510 217 1058 363 826 b 106 -106 363 193 219 -37 l 100 -99 b 313 510 183 -7 313 214 b 100 1122 313 806 186 1032 "},"[":{"ha":403,"x_min":0,"x_max":0,"o":"m 125 940 b 124 864 124 917 124 888 l 124 -239 b 125 -317 124 -262 124 -293 b 271 -324 160 -319 210 -324 b 374 -321 304 -324 351 -324 l 379 -321 l 379 -347 l 64 -347 l 64 -342 b 67 -239 67 -319 67 -272 l 67 864 b 64 967 67 897 67 944 l 64 972 l 379 972 l 379 946 l 374 946 b 271 949 351 949 304 949 b 125 940 218 949 168 946 "},"]":{"ha":403,"x_min":0,"x_max":0,"o":"m 333 967 b 331 864 331 944 331 897 l 331 -239 b 333 -342 331 -272 331 -319 l 333 -347 l 18 -347 l 18 -321 l 24 -321 b 126 -324 46 -324 93 -324 b 272 -317 188 -324 238 -319 b 274 -239 274 -293 274 -262 l 274 864 b 272 940 274 888 274 917 b 126 949 229 946 179 949 b 24 946 93 949 46 949 l 18 946 l 18 972 l 333 972 l 333 967 "},"-":{"ha":456,"x_min":0,"x_max":0,"o":"m 408 229 b 306 236 386 232 339 236 l 150 236 b 47 229 117 236 69 232 l 42 229 l 42 281 l 47 281 b 150 274 69 278 117 274 l 306 274 b 408 281 339 274 386 278 l 414 281 l 414 229 l 408 229 "},"–":{"ha":844,"x_min":0,"x_max":0,"o":"m 742 229 b 639 236 719 232 672 236 l 206 236 b 103 229 172 236 125 232 l 97 229 l 97 281 l 103 281 b 206 274 125 278 172 274 l 639 274 b 742 281 672 274 719 278 l 747 281 l 747 229 l 742 229 "},"—":{"ha":1122,"x_min":0,"x_max":0,"o":"m 1019 229 b 917 236 997 232 950 236 l 206 236 b 103 229 172 236 125 232 l 97 229 l 97 281 l 103 281 b 206 274 125 278 172 274 l 917 274 b 1019 281 950 274 997 278 l 1025 281 l 1025 229 l 1019 229 "},"_":{"ha":740,"x_min":0,"x_max":0,"o":"m 708 -131 b 606 -128 686 -129 639 -128 l 138 -128 b 35 -131 104 -128 57 -129 l 29 -131 l 29 -87 l 35 -87 b 138 -90 57 -89 104 -90 l 606 -90 b 708 -87 639 -90 686 -89 l 714 -87 l 714 -131 l 708 -131 "},"‚":{"ha":833,"x_min":0,"x_max":0,"o":"m 135 100 l 143 100 b 163 14 154 81 163 46 b 78 -169 163 -58 131 -111 l 69 -164 b 108 -36 99 -111 108 -74 b 72 51 108 1 93 28 "},"„":{"ha":833,"x_min":0,"x_max":0,"o":"m 143 100 b 163 14 154 81 163 46 b 78 -169 163 -58 131 -111 l 69 -164 b 108 -36 99 -111 108 -74 b 72 51 108 1 93 28 l 135 100 l 143 100 "},"“":{"ha":343,"x_min":0,"x_max":0,"o":"m 63 722 l 54 722 b 35 808 43 742 35 776 b 119 992 35 881 67 933 l 128 986 b 89 858 99 933 89 896 b 125 771 89 821 104 794 m 232 722 l 224 722 b 204 808 213 742 204 776 b 289 992 204 881 236 933 l 297 986 b 258 858 268 933 258 896 b 294 771 258 821 274 794 "},"”":{"ha":343,"x_min":0,"x_max":0,"o":"m 107 992 l 115 992 b 135 906 126 972 135 938 b 50 722 135 833 103 781 l 42 728 b 81 856 71 781 81 818 b 44 943 81 893 65 919 m 276 992 l 285 992 b 304 906 296 972 304 938 b 219 722 304 833 272 781 l 211 728 b 250 856 240 781 250 818 b 214 943 250 893 235 919 "},"‘":{"ha":185,"x_min":0,"x_max":0,"o":"m 69 722 l 61 722 b 42 808 50 742 42 776 b 126 992 42 881 74 933 l 135 986 b 96 858 106 933 96 896 b 132 771 96 821 111 794 "},"’":{"ha":185,"x_min":0,"x_max":0,"o":"m 107 992 l 115 992 b 135 906 126 972 135 938 b 50 722 135 833 103 781 l 42 728 b 81 856 71 781 81 818 b 44 943 81 893 65 919 "},"«":{"ha":608,"x_min":0,"x_max":0,"o":"m 276 556 l 292 556 l 93 279 l 292 0 l 276 0 l 4 279 m 488 556 l 503 556 l 304 279 l 503 0 l 488 0 l 215 279 "},"»":{"ha":575,"x_min":0,"x_max":0,"o":"m 319 279 l 47 0 l 32 0 l 231 279 l 32 556 l 47 556 m 531 279 l 258 0 l 243 0 l 442 279 l 243 556 l 258 556 "},"‹":{"ha":397,"x_min":0,"x_max":0,"o":"m 276 556 l 292 556 l 93 279 l 292 0 l 276 0 l 4 279 "},"›":{"ha":397,"x_min":0,"x_max":0,"o":"m 121 0 l 106 0 l 304 279 l 106 556 l 121 556 l 393 279 "},"\"":{"ha":343,"x_min":0,"x_max":0,"o":"m 107 992 l 115 992 b 135 906 126 972 135 938 b 50 722 135 833 103 781 l 42 728 b 81 856 71 781 81 818 b 44 943 81 893 65 919 m 276 992 l 285 992 b 304 906 296 972 304 938 b 219 722 304 833 272 781 l 211 728 b 250 856 240 781 250 818 b 214 943 250 893 235 919 "},"'":{"ha":176,"x_min":0,"x_max":0,"o":"m 107 992 l 115 992 b 135 906 126 972 135 938 b 50 722 135 833 103 781 l 42 728 b 81 856 71 781 81 818 b 44 943 81 893 65 919 "},"¢":{"ha":482,"x_min":0,"x_max":0,"o":"m 283 53 b 296 -28 283 11 286 -12 l 296 -33 l 233 -33 l 233 -28 b 242 53 240 -14 242 11 l 242 125 b 35 369 126 126 35 213 b 242 638 35 514 114 625 l 242 783 b 233 864 242 825 240 850 l 233 869 l 296 869 l 296 864 b 283 783 286 849 283 825 l 283 639 b 451 607 347 636 399 624 l 438 526 l 429 526 b 283 608 385 582 342 604 l 283 181 b 447 243 347 182 396 200 l 457 231 b 283 128 397 175 349 139 m 89 410 b 242 183 89 283 158 201 l 242 608 b 89 410 156 601 89 539 "},"¤":{"ha":693,"x_min":0,"x_max":0,"o":"m 593 164 b 656 113 624 135 640 117 l 660 108 l 615 64 l 611 68 b 563 133 607 86 592 103 l 513 185 b 346 125 469 147 413 125 b 179 185 279 125 222 147 l 129 133 b 81 68 100 103 85 86 l 76 64 l 32 108 l 36 113 b 99 164 51 117 68 135 l 151 215 b 94 382 115 260 94 318 b 153 546 94 444 117 501 l 101 596 b 36 644 71 625 54 640 l 32 649 l 76 693 l 81 689 b 132 626 85 674 103 657 l 182 575 b 346 639 226 615 283 639 b 511 575 408 639 467 615 l 561 626 b 613 689 590 657 608 674 l 617 693 l 661 649 l 657 644 b 592 596 639 640 622 625 l 539 544 b 597 382 575 501 597 444 b 540 215 597 318 576 260 l 593 164 m 410 158 b 515 429 517 186 550 301 b 282 606 481 557 389 633 b 175 333 175 578 140 461 b 410 158 210 206 303 131 "},"$":{"ha":597,"x_min":0,"x_max":0,"o":"m 553 236 b 313 -18 553 103 451 -1 b 325 -97 313 -58 315 -82 l 325 -103 l 263 -103 l 263 -97 b 271 -19 269 -83 271 -60 b 46 18 188 -18 108 1 l 72 104 l 79 104 b 271 24 124 57 185 28 l 271 485 b 60 778 164 551 60 625 b 271 997 60 914 168 989 b 263 1072 271 1035 269 1058 l 263 1078 l 325 1078 l 325 1072 b 313 997 315 1057 313 1035 b 482 975 369 996 418 988 l 529 842 l 519 840 b 313 960 483 904 401 950 l 313 549 b 553 236 429 478 553 404 m 108 801 b 271 575 108 692 183 631 l 271 961 b 108 801 171 958 108 894 m 313 22 b 506 203 449 28 506 113 b 313 458 506 332 413 397 l 313 22 "},"€":{"ha":1014,"x_min":0,"x_max":0,"o":"m 628 8 b 963 192 806 8 896 74 l 972 188 l 933 29 b 626 -21 803 -7 731 -21 b 156 429 389 -21 185 151 l 115 429 b 13 422 82 429 35 425 l 7 422 l 7 464 l 13 464 b 115 457 35 461 82 457 l 154 457 b 153 496 153 469 153 483 b 157 568 153 521 154 544 l 115 568 b 13 561 82 568 35 564 l 7 561 l 7 603 l 13 603 b 115 596 35 600 82 596 l 161 596 b 608 993 201 840 390 993 b 958 935 711 993 815 978 l 933 846 l 925 846 b 604 965 847 926 746 965 b 235 596 439 965 267 842 l 804 596 b 978 651 900 596 946 606 l 985 649 l 940 544 l 933 544 b 825 568 907 561 868 568 l 232 568 b 231 517 231 551 231 535 b 233 457 231 496 232 476 l 746 457 b 919 513 842 457 888 467 l 926 510 l 882 406 l 875 406 b 767 429 849 422 810 429 l 236 429 b 628 8 268 151 456 8 "},"£":{"ha":833,"x_min":0,"x_max":0,"o":"m 701 125 l 639 0 l 57 0 l 57 10 l 131 33 b 254 185 211 58 254 104 b 135 546 254 315 172 396 l 124 546 b 21 539 90 546 43 542 l 15 539 l 15 581 l 21 581 b 124 574 43 578 90 574 l 129 574 b 117 700 121 611 117 653 b 419 997 117 885 263 997 b 650 960 504 997 586 976 l 624 874 l 617 874 b 394 963 568 925 494 963 b 179 697 247 963 179 878 b 192 574 179 650 185 610 l 378 574 b 551 629 474 574 519 583 l 558 626 l 514 522 l 507 522 b 399 546 481 539 442 546 l 199 546 b 319 176 238 410 319 338 b 182 32 319 108 272 54 l 461 32 b 694 129 582 32 633 50 "},"¥":{"ha":1026,"x_min":0,"x_max":0,"o":"m 997 972 l 997 963 b 901 879 960 942 931 911 l 542 469 l 611 469 b 774 503 704 469 750 475 l 781 500 l 749 424 l 742 424 b 632 442 714 435 675 442 l 540 442 l 540 331 l 553 331 b 726 386 649 331 694 340 l 733 383 l 689 279 l 682 279 b 574 303 656 296 617 303 l 540 303 l 540 124 b 585 10 540 57 551 26 l 585 0 l 428 0 l 428 10 b 472 124 461 28 472 56 l 472 303 l 428 303 b 325 296 394 303 347 299 l 319 296 l 319 338 l 325 338 b 428 331 347 335 394 331 l 472 331 l 472 442 l 428 442 b 325 435 394 442 347 438 l 319 435 l 319 476 l 325 476 b 428 469 347 474 394 469 l 471 469 l 125 879 b 29 963 97 913 67 942 l 29 972 l 192 972 l 192 963 b 232 860 168 954 183 918 l 526 504 l 838 858 b 878 961 889 917 901 953 l 878 971 "},"+":{"ha":706,"x_min":0,"x_max":0,"o":"m 608 281 l 608 229 l 603 229 b 500 236 581 232 533 236 l 372 236 l 372 108 b 379 6 372 75 376 28 l 379 0 l 328 0 l 328 6 b 335 108 331 28 335 75 l 335 236 l 206 236 b 103 229 172 236 125 232 l 97 229 l 97 281 l 103 281 b 206 274 125 278 172 274 l 333 274 l 333 403 b 326 506 333 436 329 483 l 326 511 l 379 511 l 379 506 b 372 403 376 483 372 436 l 372 274 l 500 274 b 603 281 533 274 581 278 "},"−":{"ha":706,"x_min":0,"x_max":0,"o":"m 603 229 b 500 236 581 232 533 236 l 206 236 b 103 229 172 236 125 232 l 97 229 l 97 281 l 103 281 b 206 274 125 278 172 274 l 500 274 b 603 281 533 274 581 278 l 608 281 l 608 229 l 603 229 "},"×":{"ha":539,"x_min":0,"x_max":0,"o":"m 386 94 b 464 26 410 71 446 40 l 468 24 l 432 -14 l 428 -10 b 360 68 414 8 383 44 l 269 158 l 179 68 b 111 -10 156 44 125 8 l 107 -14 l 71 24 l 75 26 b 153 94 93 40 129 71 l 243 185 l 151 276 b 74 344 128 300 92 331 l 69 349 l 107 385 l 110 381 b 178 303 124 363 154 326 l 268 213 l 360 304 b 428 382 383 328 414 364 l 432 386 l 469 349 l 465 344 b 388 276 447 331 411 300 l 296 185 l 386 94 "},"÷":{"ha":706,"x_min":0,"x_max":0,"o":"m 356 386 b 299 443 324 386 299 413 b 356 500 299 475 324 500 b 413 443 386 500 413 475 b 356 386 413 413 386 386 m 603 229 b 500 236 581 232 533 236 l 206 236 b 103 229 172 236 125 232 l 97 229 l 97 281 l 103 281 b 206 274 125 278 172 274 l 500 274 b 603 281 533 274 581 278 l 608 281 l 608 229 l 603 229 m 356 -14 b 299 43 324 -14 299 13 b 356 100 299 75 324 100 b 413 43 386 100 413 75 b 356 -14 413 13 386 -14 "},"=":{"ha":706,"x_min":0,"x_max":0,"o":"m 603 340 b 500 347 581 343 533 347 l 206 347 b 103 340 172 347 125 343 l 97 340 l 97 392 l 103 392 b 206 385 125 389 172 385 l 500 385 b 603 392 533 385 581 389 l 608 392 l 608 340 l 603 340 m 603 118 b 500 125 581 121 533 125 l 206 125 b 103 118 172 125 125 121 l 97 118 l 97 169 l 103 169 b 206 163 125 167 172 163 l 500 163 b 603 169 533 163 581 167 l 608 169 l 608 118 l 603 118 "},"≠":{"ha":706,"x_min":0,"x_max":0,"o":"m 453 347 l 358 163 l 500 163 b 603 169 533 163 581 167 l 608 169 l 608 118 l 603 118 b 500 125 581 121 533 125 l 339 125 l 293 36 b 274 -28 283 18 271 -12 l 274 -33 l 208 -33 l 208 -28 b 257 53 229 -1 243 25 l 294 125 l 206 125 b 103 118 172 125 125 121 l 97 118 l 97 169 l 103 169 b 206 163 125 167 172 163 l 314 163 l 410 347 l 206 347 b 103 340 172 347 125 343 l 97 340 l 97 392 l 103 392 b 206 385 125 389 172 385 l 429 385 l 474 469 b 496 538 485 492 494 515 l 557 538 l 557 532 b 510 460 540 514 533 507 l 471 385 l 500 385 b 603 392 533 385 581 389 l 608 392 l 608 340 l 603 340 b 500 347 581 343 533 347 "},">":{"ha":607,"x_min":0,"x_max":0,"o":"m 579 247 l 579 240 l 183 35 b 103 -14 156 21 129 7 l 97 -14 l 97 49 l 103 49 b 167 68 118 46 149 58 l 511 244 l 168 421 b 104 440 150 431 119 443 l 99 440 l 99 501 l 104 501 b 185 453 131 481 157 467 "},"<":{"ha":607,"x_min":0,"x_max":0,"o":"m 510 49 l 510 -14 l 504 -14 b 424 35 478 7 451 21 l 28 240 l 28 247 l 422 453 b 503 501 450 467 476 481 l 508 501 l 508 440 l 503 440 b 439 421 488 443 457 431 l 96 244 l 440 68 b 504 49 458 58 489 46 "},"^":{"ha":833,"x_min":0,"x_max":0,"o":""},"%":{"ha":857,"x_min":0,"x_max":0,"o":"m 165 735 b 42 861 92 735 42 790 b 165 986 42 931 99 986 b 289 861 232 986 289 931 b 165 735 289 790 239 735 m 121 6 b 169 86 142 32 156 58 l 592 904 b 614 972 603 926 613 950 l 675 972 l 675 967 b 628 894 658 949 651 942 l 206 69 b 186 6 196 51 183 21 l 186 0 l 121 0 m 197 764 b 250 881 250 776 267 825 b 133 958 233 935 186 971 b 81 840 81 946 64 896 b 197 764 97 786 144 751 m 692 -14 b 568 113 618 -14 568 42 b 692 238 568 182 625 238 b 815 113 758 238 815 182 b 692 -14 815 42 765 -14 m 724 15 b 776 132 776 28 793 76 b 660 210 760 186 713 222 b 607 92 607 197 590 147 b 724 15 624 38 671 3 "},"‰":{"ha":1149,"x_min":0,"x_max":0,"o":"m 165 735 b 42 861 92 735 42 790 b 165 986 42 931 99 986 b 289 861 232 986 289 931 b 165 735 289 790 239 735 m 121 6 b 169 86 142 32 156 58 l 592 904 b 614 972 603 926 613 950 l 675 972 l 675 967 b 628 894 658 949 651 942 l 206 69 b 186 6 196 51 183 21 l 186 0 l 121 0 m 197 764 b 250 881 250 776 267 825 b 133 958 233 935 186 971 b 81 840 81 946 64 896 b 197 764 97 786 144 751 m 692 -14 b 568 113 618 -14 568 42 b 692 238 568 182 625 238 b 815 113 758 238 815 182 b 692 -14 815 42 765 -14 m 983 -14 b 860 113 910 -14 860 42 b 983 238 860 182 917 238 b 1107 113 1050 238 1107 182 b 983 -14 1107 42 1057 -14 m 724 15 b 776 132 776 28 793 76 b 660 210 760 186 713 222 b 607 92 607 197 590 147 b 724 15 624 38 671 3 m 1015 15 b 1068 132 1068 28 1085 76 b 951 210 1051 186 1004 222 b 899 92 899 197 882 147 b 1015 15 915 38 963 3 "},"↑":{"ha":663,"x_min":0,"x_max":0,"o":"m 349 631 l 349 107 b 356 4 349 74 353 26 l 356 0 l 304 0 l 304 6 b 311 107 307 28 311 74 l 311 629 l 36 401 l 28 410 l 331 713 l 635 410 l 628 403 "},"↗":{"ha":650,"x_min":0,"x_max":0,"o":"m 543 182 l 507 542 l 136 171 b 68 93 113 147 82 111 l 65 89 l 28 125 l 32 129 b 110 197 50 143 86 174 l 479 567 l 124 600 l 124 611 l 551 611 l 553 182 "},"→":{"ha":814,"x_min":0,"x_max":0,"o":"m 810 336 l 507 33 l 499 42 l 726 317 l 204 317 b 101 310 171 317 124 313 l 96 310 l 96 361 l 100 361 b 204 354 122 358 171 354 l 728 354 l 500 633 l 507 640 "},"↘":{"ha":650,"x_min":0,"x_max":0,"o":"m 553 518 l 551 89 l 124 89 l 124 100 l 479 133 l 110 503 b 32 571 86 526 50 557 l 28 575 l 65 611 l 68 607 b 136 529 82 589 113 553 l 507 158 l 543 518 "},"↓":{"ha":663,"x_min":0,"x_max":0,"o":"m 635 289 l 331 -14 l 28 289 l 36 297 l 311 69 l 311 592 b 304 693 311 625 307 671 l 304 699 l 356 699 l 356 694 b 349 592 353 672 349 625 l 349 68 l 628 296 "},"↙":{"ha":650,"x_min":0,"x_max":0,"o":"m 622 575 l 618 571 b 540 503 600 557 564 526 l 171 133 l 526 100 l 526 89 l 99 89 l 97 518 l 107 518 l 143 158 l 514 529 b 582 607 538 553 568 589 l 585 611 "},"←":{"ha":815,"x_min":0,"x_max":0,"o":"m 717 361 l 717 310 l 711 310 b 610 317 689 313 643 317 l 88 317 l 315 42 l 307 33 l 4 336 l 307 640 l 314 633 l 86 354 l 610 354 b 713 361 643 354 690 358 "},"↖":{"ha":650,"x_min":0,"x_max":0,"o":"m 622 125 l 585 89 l 582 93 b 514 171 568 111 538 147 l 143 542 l 107 182 l 97 182 l 99 611 l 526 611 l 526 600 l 171 567 l 540 197 b 618 129 564 174 600 143 "},"↔":{"ha":875,"x_min":0,"x_max":0,"o":"m 871 336 l 568 33 l 560 42 l 788 317 l 88 317 l 315 42 l 307 33 l 4 336 l 307 640 l 314 633 l 86 354 l 789 354 l 561 633 l 568 640 "},"↕":{"ha":664,"x_min":0,"x_max":0,"o":"m 629 297 l 636 290 l 332 -14 l 29 289 l 38 297 l 313 69 l 311 771 l 38 542 l 28 550 l 331 854 l 636 551 l 629 544 l 349 772 l 350 68 "},"◊":{"ha":567,"x_min":0,"x_max":0,"o":"m 515 493 l 276 -18 l 265 -18 l 51 475 l 290 986 l 301 986 m 289 67 l 468 450 l 278 900 l 99 518 "},"@":{"ha":1182,"x_min":0,"x_max":0,"o":"m 836 660 b 811 510 815 611 811 574 l 811 256 b 885 157 811 188 821 157 b 1069 486 1000 157 1081 269 b 576 954 1054 782 857 954 b 124 400 308 954 104 751 b 613 -153 143 47 344 -153 b 874 -93 722 -153 800 -131 l 879 -106 b 607 -179 808 -149 704 -179 b 56 403 296 -179 56 32 b 599 986 56 772 297 986 b 1126 486 913 986 1126 799 b 865 126 1126 226 978 126 b 750 215 776 126 754 175 b 547 126 690 161 619 126 b 350 364 432 126 350 208 b 592 643 350 507 440 643 b 749 594 696 643 733 594 b 825 667 763 594 786 615 l 836 660 m 404 394 b 585 178 404 257 481 178 b 750 244 647 178 704 201 l 750 492 b 588 606 750 574 651 606 b 404 394 483 606 404 539 "},"&":{"ha":1393,"x_min":0,"x_max":0,"o":"m 1379 792 l 1379 782 b 1336 697 1351 768 1336 744 b 936 -19 1336 311 1238 -19 b 674 153 797 -19 722 54 b 340 -19 588 49 474 -19 b 56 300 183 -19 56 101 b 393 682 56 514 193 682 b 697 264 606 682 640 456 b 796 692 757 376 796 521 b 626 971 796 865 732 971 b 490 688 479 971 449 800 l 481 683 b 421 833 435 740 421 785 b 621 997 421 922 493 997 b 860 704 747 997 860 921 b 715 210 860 531 808 349 b 936 7 756 96 813 7 b 1267 760 1156 7 1267 211 l 1186 760 b 985 711 1086 760 1026 747 l 976 711 l 954 792 m 356 7 b 654 194 460 7 571 75 b 368 650 575 390 564 650 b 125 310 235 650 125 515 b 356 7 125 111 235 7 "},"©":{"ha":833,"x_min":0,"x_max":0,"o":"m 50 485 b 549 992 50 765 256 992 b 1046 485 842 992 1046 765 b 549 -21 1046 204 838 -21 b 50 485 260 -21 50 204 m 128 489 b 550 8 128 214 315 10 b 967 481 786 10 967 206 b 546 963 967 743 804 963 b 128 489 308 961 129 767 m 735 329 b 521 224 664 263 608 224 b 313 468 406 224 313 311 b 544 738 313 622 403 738 b 729 706 615 738 672 724 l 715 625 l 707 625 b 539 708 657 688 608 708 b 367 508 444 708 367 647 b 551 279 367 367 456 279 b 725 342 621 279 671 296 "},"®":{"ha":1096,"x_min":0,"x_max":0,"o":"m 549 992 b 1046 485 842 992 1046 765 b 549 -21 1046 204 838 -21 b 50 485 260 -21 50 204 b 549 992 50 765 256 992 m 550 8 b 967 481 786 10 967 206 b 546 963 967 743 804 963 b 128 489 308 961 129 767 b 550 8 128 214 315 10 m 674 331 b 788 231 699 297 747 251 l 788 222 l 636 222 l 636 231 b 615 308 674 250 649 264 l 506 451 l 433 451 l 433 346 b 478 232 433 278 444 249 l 478 222 l 328 222 l 328 232 b 372 346 361 250 372 278 l 372 613 b 328 699 372 676 361 690 l 328 708 l 440 736 l 447 728 b 433 613 436 694 433 669 l 433 601 b 629 726 496 685 549 726 b 675 719 644 726 656 725 l 657 647 l 647 647 b 578 669 626 663 608 669 b 433 479 515 669 433 594 l 433 472 l 486 472 b 543 493 517 472 533 483 l 549 493 l 674 331 "},"™":{"ha":1053,"x_min":0,"x_max":0,"o":"m 1001 553 b 1029 496 1007 513 1014 501 l 1029 486 l 919 486 l 919 496 b 947 556 944 506 951 518 l 908 858 l 726 475 l 718 475 l 535 881 l 493 551 b 524 496 489 521 496 504 l 524 486 l 433 486 l 433 496 b 463 553 447 501 458 515 l 518 986 l 528 986 l 729 554 l 935 986 l 944 986 l 1001 553 m 38 972 l 410 972 l 397 918 l 389 918 b 318 950 381 939 365 950 l 244 950 l 244 558 b 267 496 244 519 251 500 l 267 486 l 168 486 l 168 496 b 190 557 183 503 190 521 l 190 950 l 119 950 b 33 910 72 950 53 942 l 24 910 "},"°":{"ha":833,"x_min":0,"x_max":0,"o":"m 396 735 b 272 861 322 735 272 790 b 396 986 272 931 329 986 b 519 861 463 986 519 931 b 396 735 519 790 469 735 m 428 764 b 481 881 481 776 497 825 b 364 958 464 935 417 969 b 311 840 311 946 294 896 b 428 764 328 786 375 753 "},"|":{"ha":201,"x_min":0,"x_max":0,"o":"m 119 53 b 132 -28 119 11 122 -12 l 132 -33 l 69 -33 l 69 -28 b 78 53 76 -14 78 11 l 78 922 b 69 1003 78 964 76 989 l 69 1008 l 132 1008 l 132 1003 b 119 922 122 988 119 964 l 119 53 "},"¦":{"ha":201,"x_min":0,"x_max":0,"o":"m 119 660 b 132 579 119 618 122 594 l 132 574 l 69 574 l 69 579 b 78 660 76 593 78 618 l 78 922 b 69 1003 78 964 76 989 l 69 1008 l 132 1008 l 132 1003 b 119 922 122 988 119 964 l 119 660 m 119 53 b 132 -28 119 11 122 -12 l 132 -33 l 69 -33 l 69 -28 b 78 53 76 -14 78 11 l 78 315 b 69 396 78 357 76 382 l 69 401 l 132 401 l 132 396 b 119 315 122 381 119 357 l 119 53 "},"†":{"ha":685,"x_min":0,"x_max":0,"o":"m 629 842 l 629 783 l 624 783 b 543 796 608 793 585 796 l 361 796 l 361 479 b 374 399 361 438 364 414 l 374 393 l 311 393 l 311 399 b 319 479 318 413 319 438 l 319 796 l 142 796 b 61 783 100 796 76 793 l 56 783 l 56 842 l 61 842 b 142 833 75 835 100 833 l 319 833 l 319 922 b 311 1003 319 964 318 989 l 311 1008 l 374 1008 l 374 1003 b 361 922 364 988 361 964 l 361 833 l 543 833 b 624 842 585 833 610 835 "},"‡":{"ha":685,"x_min":0,"x_max":0,"o":"m 361 796 l 361 606 l 543 606 b 624 618 585 606 608 608 l 629 618 l 629 560 l 624 560 b 543 568 610 567 585 568 l 361 568 l 361 479 b 374 399 361 438 364 414 l 374 393 l 311 393 l 311 399 b 319 479 318 413 319 438 l 319 568 l 142 568 b 61 560 100 568 75 567 l 56 560 l 56 618 l 61 618 b 142 606 76 608 100 606 l 319 606 l 319 796 l 142 796 b 61 783 100 796 76 793 l 56 783 l 56 842 l 61 842 b 142 833 75 835 100 833 l 319 833 l 319 922 b 311 1003 319 964 318 989 l 311 1008 l 374 1008 l 374 1003 b 361 922 364 988 361 964 l 361 833 l 543 833 b 624 842 585 833 610 835 l 629 842 l 629 783 l 624 783 b 543 796 608 793 585 796 "},"̈":{"ha":0,"x_min":0,"x_max":0,"o":"m -289 675 b -342 728 -322 675 -342 700 b -289 781 -342 757 -322 781 b -236 728 -257 781 -236 757 b -289 675 -236 700 -257 675 m -94 675 b -147 728 -128 675 -147 700 b -94 781 -147 757 -128 781 b -42 728 -62 781 -42 757 b -94 675 -42 700 -62 675 "},"̇":{"ha":0,"x_min":0,"x_max":0,"o":"m -94 675 b -147 728 -128 675 -147 700 b -94 781 -147 757 -128 781 b -42 728 -62 781 -42 757 b -94 675 -42 700 -62 675 "},"̀":{"ha":0,"x_min":0,"x_max":0,"o":"m -33 621 b -228 747 -117 664 -181 707 l -196 821 l -187 821 b -28 628 -149 738 -110 694 "},"́":{"ha":0,"x_min":0,"x_max":0,"o":"m -242 628 b -82 821 -160 693 -121 738 l -74 821 l -42 747 b -236 621 -89 707 -153 664 l -242 628 "},"̋":{"ha":0,"x_min":0,"x_max":0,"o":"m -394 628 b -235 821 -312 693 -274 738 l -226 821 l -194 747 b -389 621 -242 707 -306 664 l -394 628 m -242 628 b -82 821 -160 693 -121 738 l -74 821 l -42 747 b -236 621 -89 707 -153 664 l -242 628 "},"̂":{"ha":0,"x_min":0,"x_max":0,"o":"m -47 621 b -189 721 -108 657 -146 679 b -331 621 -232 679 -269 657 l -336 628 b -193 821 -269 688 -229 738 l -185 821 b -42 628 -149 738 -108 688 "},"̌":{"ha":0,"x_min":0,"x_max":0,"o":"m -42 814 b -185 621 -108 754 -149 704 l -193 621 b -336 814 -229 704 -269 754 l -331 821 b -189 721 -269 785 -232 763 b -47 821 -146 763 -108 785 l -42 814 "},"̆":{"ha":0,"x_min":0,"x_max":0,"o":"m -43 733 b -151 603 -36 654 -79 603 b -260 733 -225 603 -268 654 l -246 733 b -151 642 -240 668 -206 642 b -57 733 -99 642 -64 668 l -43 733 "},"̊":{"ha":0,"x_min":0,"x_max":0,"o":"m -157 603 b -274 719 -231 603 -274 654 b -157 835 -274 783 -231 835 b -42 719 -85 835 -42 783 b -157 603 -42 654 -85 603 m -157 628 b -83 719 -111 628 -83 668 b -157 810 -83 769 -111 810 b -232 719 -204 810 -232 769 b -157 628 -232 668 -204 628 "},"̃":{"ha":0,"x_min":0,"x_max":0,"o":"m -124 639 b -42 796 -89 639 -56 697 l -56 797 b -112 690 -75 713 -94 690 b -272 813 -149 690 -219 813 b -351 656 -306 813 -339 756 l -339 654 b -282 756 -317 739 -299 756 b -124 639 -253 756 -176 639 "},"̄":{"ha":0,"x_min":0,"x_max":0,"o":"m -47 689 b -150 694 -67 692 -117 694 l -194 694 b -297 689 -228 694 -286 692 l -303 689 l -303 738 l -297 738 b -194 732 -286 735 -228 732 l -150 732 b -47 738 -117 732 -67 735 l -42 738 l -42 689 l -47 689 "},"̒":{"ha":0,"x_min":0,"x_max":0,"o":"m -107 597 l -115 597 b -135 683 -126 617 -135 651 b -50 867 -135 756 -103 808 l -42 861 b -81 733 -71 808 -81 771 b -44 646 -81 696 -65 669 "},"̦":{"ha":0,"x_min":0,"x_max":0,"o":"m -69 -72 l -61 -72 b -42 -158 -50 -92 -42 -126 b -126 -342 -42 -231 -74 -283 l -135 -336 b -96 -208 -106 -283 -96 -246 b -132 -121 -96 -171 -111 -144 "},"̧":{"ha":0,"x_min":0,"x_max":0,"o":"m -122 -57 b -42 -133 -79 -57 -42 -85 b -171 -247 -42 -207 -103 -247 b -285 -210 -217 -247 -258 -229 l -279 -201 b -174 -229 -246 -218 -215 -229 b -87 -146 -124 -229 -87 -193 b -150 -89 -87 -114 -115 -89 b -224 -114 -176 -89 -203 -100 l -229 -108 l -172 -3 l -160 -3 l -181 -75 b -122 -57 -165 -64 -147 -57 "},"̨":{"ha":0,"x_min":0,"x_max":0,"o":"m -587 -210 b -701 -247 -614 -229 -656 -247 b -831 -133 -769 -247 -831 -207 b -750 -57 -831 -85 -793 -57 b -692 -75 -725 -57 -707 -64 l -712 -3 l -700 -3 l -643 -108 l -649 -114 b -722 -89 -669 -100 -696 -89 b -785 -146 -757 -89 -785 -114 b -699 -229 -785 -193 -749 -229 b -593 -201 -657 -229 -626 -218 "}}}
